<mxfile host="Electron" modified="2023-09-30T14:19:15.645Z" agent="Mozilla/5.0 (Windows NT 10.0; Win64; x64) AppleWebKit/537.36 (KHTML, like Gecko) draw.io/21.7.5 Chrome/114.0.5735.289 Electron/25.8.1 Safari/537.36" etag="CuGXPcovQiy1SUsjtiPM" version="21.7.5" type="device">
  <diagram name="Ref" id="_MRvo5Q-zMwSHqLwXMmU">
    <mxGraphModel dx="8370" dy="5349" grid="1" gridSize="10" guides="1" tooltips="1" connect="1" arrows="1" fold="1" page="1" pageScale="1" pageWidth="827" pageHeight="1169" math="0" shadow="0">
      <root>
        <mxCell id="0" />
        <mxCell id="1" parent="0" />
        <mxCell id="3OM4jTuPAk8waTPdajKI-1" value="" style="group;strokeWidth=3;" vertex="1" connectable="0" parent="1">
          <mxGeometry x="710" y="90" width="430" height="430" as="geometry" />
        </mxCell>
        <mxCell id="3OM4jTuPAk8waTPdajKI-2" value="&lt;font size=&quot;3&quot;&gt;&lt;b&gt;cmdSeq&lt;/b&gt;&lt;br&gt;&lt;br&gt;Svc.CommandDispatcher&lt;br&gt;&lt;br&gt;active&lt;br&gt;&lt;/font&gt;" style="rounded=1;whiteSpace=wrap;html=1;fontSize=8;strokeColor=#3399FF;strokeWidth=3;" vertex="1" parent="3OM4jTuPAk8waTPdajKI-1">
          <mxGeometry x="50" width="260" height="430" as="geometry" />
        </mxCell>
        <mxCell id="3OM4jTuPAk8waTPdajKI-3" value="cmdIn" style="rounded=1;whiteSpace=wrap;html=1;strokeColor=#000000;fontSize=12;strokeWidth=3;" vertex="1" parent="3OM4jTuPAk8waTPdajKI-1">
          <mxGeometry y="20" width="80" height="40" as="geometry" />
        </mxCell>
        <mxCell id="3OM4jTuPAk8waTPdajKI-4" value="cmdRegOut" style="rounded=1;whiteSpace=wrap;html=1;strokeColor=#000000;fontSize=12;strokeWidth=3;" vertex="1" parent="3OM4jTuPAk8waTPdajKI-1">
          <mxGeometry y="70" width="80" height="40" as="geometry" />
        </mxCell>
        <mxCell id="3OM4jTuPAk8waTPdajKI-5" value="&lt;b&gt;seqCancelIn&lt;/b&gt;:&amp;nbsp; Svc.CmdSeqCancel" style="rounded=1;whiteSpace=wrap;html=1;strokeColor=#000000;fontSize=12;strokeWidth=3;" vertex="1" parent="3OM4jTuPAk8waTPdajKI-1">
          <mxGeometry x="275" y="20" width="155" height="40" as="geometry" />
        </mxCell>
        <mxCell id="3OM4jTuPAk8waTPdajKI-6" value="&lt;b&gt;cmdResponsein: &lt;/b&gt;Fw.CmdResponse" style="rounded=1;whiteSpace=wrap;html=1;strokeColor=#000000;fontSize=12;strokeWidth=3;" vertex="1" parent="3OM4jTuPAk8waTPdajKI-1">
          <mxGeometry x="275" y="70" width="155" height="40" as="geometry" />
        </mxCell>
        <mxCell id="3OM4jTuPAk8waTPdajKI-7" value="logOut" style="rounded=1;whiteSpace=wrap;html=1;strokeColor=#000000;fontSize=12;strokeWidth=3;" vertex="1" parent="3OM4jTuPAk8waTPdajKI-1">
          <mxGeometry y="170" width="80" height="40" as="geometry" />
        </mxCell>
        <mxCell id="3OM4jTuPAk8waTPdajKI-8" value="cmdResponseOut" style="rounded=1;whiteSpace=wrap;html=1;strokeColor=#000000;fontSize=12;strokeWidth=3;" vertex="1" parent="3OM4jTuPAk8waTPdajKI-1">
          <mxGeometry y="120" width="80" height="40" as="geometry" />
        </mxCell>
        <mxCell id="3OM4jTuPAk8waTPdajKI-9" value="&lt;b&gt;seqDone:&amp;nbsp;&lt;br&gt;&lt;/b&gt;Fw.CmdResponse" style="rounded=1;whiteSpace=wrap;html=1;strokeColor=#000000;fontSize=12;strokeWidth=3;" vertex="1" parent="3OM4jTuPAk8waTPdajKI-1">
          <mxGeometry x="275" y="120" width="155" height="40" as="geometry" />
        </mxCell>
        <mxCell id="3OM4jTuPAk8waTPdajKI-10" value="&lt;b&gt;seqRunIn: &lt;/b&gt;Fw.CmdSeqIn" style="rounded=1;whiteSpace=wrap;html=1;strokeColor=#000000;fontSize=12;strokeWidth=3;" vertex="1" parent="3OM4jTuPAk8waTPdajKI-1">
          <mxGeometry x="275" y="170" width="155" height="40" as="geometry" />
        </mxCell>
        <mxCell id="3OM4jTuPAk8waTPdajKI-11" value="&lt;b&gt;comCmdOut: &lt;/b&gt;Fw.Com" style="rounded=1;whiteSpace=wrap;html=1;strokeColor=#000000;fontSize=12;strokeWidth=3;" vertex="1" parent="3OM4jTuPAk8waTPdajKI-1">
          <mxGeometry x="275" y="220" width="155" height="40" as="geometry" />
        </mxCell>
        <mxCell id="3OM4jTuPAk8waTPdajKI-12" value="&lt;b&gt;pingIn: &lt;/b&gt;Svc.Ping" style="rounded=1;whiteSpace=wrap;html=1;strokeColor=#000000;fontSize=12;strokeWidth=3;" vertex="1" parent="3OM4jTuPAk8waTPdajKI-1">
          <mxGeometry x="275" y="320" width="155" height="40" as="geometry" />
        </mxCell>
        <mxCell id="3OM4jTuPAk8waTPdajKI-13" value="&lt;b&gt;pingOut: &lt;/b&gt;Svc.Ping" style="rounded=1;whiteSpace=wrap;html=1;strokeColor=#000000;fontSize=12;strokeWidth=3;" vertex="1" parent="3OM4jTuPAk8waTPdajKI-1">
          <mxGeometry x="275" y="370" width="155" height="40" as="geometry" />
        </mxCell>
        <mxCell id="3OM4jTuPAk8waTPdajKI-14" value="LogText" style="rounded=1;whiteSpace=wrap;html=1;strokeColor=#000000;fontSize=12;strokeWidth=3;" vertex="1" parent="3OM4jTuPAk8waTPdajKI-1">
          <mxGeometry y="270" width="80" height="40" as="geometry" />
        </mxCell>
        <mxCell id="3OM4jTuPAk8waTPdajKI-15" value="tlmOut" style="rounded=1;whiteSpace=wrap;html=1;strokeColor=#000000;fontSize=12;strokeWidth=3;" vertex="1" parent="3OM4jTuPAk8waTPdajKI-1">
          <mxGeometry y="220" width="80" height="40" as="geometry" />
        </mxCell>
        <mxCell id="3OM4jTuPAk8waTPdajKI-16" value="timeCaller" style="rounded=1;whiteSpace=wrap;html=1;strokeColor=#000000;fontSize=12;strokeWidth=3;" vertex="1" parent="3OM4jTuPAk8waTPdajKI-1">
          <mxGeometry y="320" width="80" height="40" as="geometry" />
        </mxCell>
        <mxCell id="3OM4jTuPAk8waTPdajKI-17" value="&lt;b&gt;schedIn: &lt;/b&gt;Svc.Sched" style="rounded=1;whiteSpace=wrap;html=1;strokeColor=#000000;fontSize=12;strokeWidth=3;" vertex="1" parent="3OM4jTuPAk8waTPdajKI-1">
          <mxGeometry x="275" y="270" width="155" height="40" as="geometry" />
        </mxCell>
        <mxCell id="3OM4jTuPAk8waTPdajKI-18" value="" style="group;strokeWidth=3;" vertex="1" connectable="0" parent="1">
          <mxGeometry x="860" y="1100" width="430" height="380" as="geometry" />
        </mxCell>
        <mxCell id="3OM4jTuPAk8waTPdajKI-19" value="&lt;font size=&quot;3&quot;&gt;&lt;b&gt;fileDownlink&lt;/b&gt;&lt;br&gt;&lt;br&gt;Svc.FileDownlink&lt;br&gt;&lt;br&gt;active&lt;br&gt;&lt;/font&gt;" style="rounded=1;whiteSpace=wrap;html=1;fontSize=8;strokeColor=#3399FF;strokeWidth=3;" vertex="1" parent="3OM4jTuPAk8waTPdajKI-18">
          <mxGeometry x="50" width="260" height="380" as="geometry" />
        </mxCell>
        <mxCell id="3OM4jTuPAk8waTPdajKI-20" value="timeCaller" style="rounded=1;whiteSpace=wrap;html=1;strokeColor=#000000;fontSize=12;strokeWidth=3;" vertex="1" parent="3OM4jTuPAk8waTPdajKI-18">
          <mxGeometry y="20" width="80" height="40" as="geometry" />
        </mxCell>
        <mxCell id="3OM4jTuPAk8waTPdajKI-21" value="cmdRegOut" style="rounded=1;whiteSpace=wrap;html=1;strokeColor=#000000;fontSize=12;strokeWidth=3;" vertex="1" parent="3OM4jTuPAk8waTPdajKI-18">
          <mxGeometry y="70" width="80" height="40" as="geometry" />
        </mxCell>
        <mxCell id="3OM4jTuPAk8waTPdajKI-22" value="&lt;b&gt;Run&lt;/b&gt;: &lt;br&gt;Svc.Sched" style="rounded=1;whiteSpace=wrap;html=1;strokeColor=#000000;fontSize=12;strokeWidth=3;" vertex="1" parent="3OM4jTuPAk8waTPdajKI-18">
          <mxGeometry x="275" y="20" width="155" height="40" as="geometry" />
        </mxCell>
        <mxCell id="3OM4jTuPAk8waTPdajKI-23" value="&lt;b&gt;SendFile: &lt;/b&gt;Svc.SendFileRequest" style="rounded=1;whiteSpace=wrap;html=1;strokeColor=#000000;fontSize=12;strokeWidth=3;" vertex="1" parent="3OM4jTuPAk8waTPdajKI-18">
          <mxGeometry x="275" y="70" width="155" height="40" as="geometry" />
        </mxCell>
        <mxCell id="3OM4jTuPAk8waTPdajKI-24" value="cmdIn" style="rounded=1;whiteSpace=wrap;html=1;strokeColor=#000000;fontSize=12;strokeWidth=3;" vertex="1" parent="3OM4jTuPAk8waTPdajKI-18">
          <mxGeometry y="120" width="80" height="40" as="geometry" />
        </mxCell>
        <mxCell id="3OM4jTuPAk8waTPdajKI-25" value="cmdResponseOut" style="rounded=1;whiteSpace=wrap;html=1;strokeColor=#000000;fontSize=12;strokeWidth=3;" vertex="1" parent="3OM4jTuPAk8waTPdajKI-18">
          <mxGeometry y="170" width="80" height="40" as="geometry" />
        </mxCell>
        <mxCell id="3OM4jTuPAk8waTPdajKI-26" value="&lt;b&gt;FileComplet: &lt;/b&gt;Svc.SendFileComplete" style="rounded=1;whiteSpace=wrap;html=1;strokeColor=#000000;fontSize=12;strokeWidth=3;" vertex="1" parent="3OM4jTuPAk8waTPdajKI-18">
          <mxGeometry x="275" y="120" width="155" height="40" as="geometry" />
        </mxCell>
        <mxCell id="3OM4jTuPAk8waTPdajKI-27" value="&lt;b&gt;bufferReturn: &lt;/b&gt;Fw.BufferSend" style="rounded=1;whiteSpace=wrap;html=1;strokeColor=#000000;fontSize=12;strokeWidth=3;" vertex="1" parent="3OM4jTuPAk8waTPdajKI-18">
          <mxGeometry x="275" y="170" width="155" height="40" as="geometry" />
        </mxCell>
        <mxCell id="3OM4jTuPAk8waTPdajKI-28" value="&lt;b&gt;PingIn: &lt;br&gt;&lt;/b&gt;Svc.Ping" style="rounded=1;whiteSpace=wrap;html=1;strokeColor=#000000;fontSize=12;strokeWidth=3;" vertex="1" parent="3OM4jTuPAk8waTPdajKI-18">
          <mxGeometry x="275" y="270" width="155" height="40" as="geometry" />
        </mxCell>
        <mxCell id="3OM4jTuPAk8waTPdajKI-29" value="&lt;b&gt;PingOut: &lt;br&gt;&lt;/b&gt;Svc.Ping" style="rounded=1;whiteSpace=wrap;html=1;strokeColor=#000000;fontSize=12;strokeWidth=3;" vertex="1" parent="3OM4jTuPAk8waTPdajKI-18">
          <mxGeometry x="275" y="320" width="155" height="40" as="geometry" />
        </mxCell>
        <mxCell id="3OM4jTuPAk8waTPdajKI-30" value="eventOut" style="rounded=1;whiteSpace=wrap;html=1;strokeColor=#000000;fontSize=12;strokeWidth=3;" vertex="1" parent="3OM4jTuPAk8waTPdajKI-18">
          <mxGeometry y="220" width="80" height="40" as="geometry" />
        </mxCell>
        <mxCell id="3OM4jTuPAk8waTPdajKI-31" value="textEventOut" style="rounded=1;whiteSpace=wrap;html=1;strokeColor=#000000;fontSize=12;strokeWidth=3;" vertex="1" parent="3OM4jTuPAk8waTPdajKI-18">
          <mxGeometry y="270" width="80" height="40" as="geometry" />
        </mxCell>
        <mxCell id="3OM4jTuPAk8waTPdajKI-32" value="tlmOut" style="rounded=1;whiteSpace=wrap;html=1;strokeColor=#000000;fontSize=12;strokeWidth=3;" vertex="1" parent="3OM4jTuPAk8waTPdajKI-18">
          <mxGeometry y="320" width="80" height="40" as="geometry" />
        </mxCell>
        <mxCell id="3OM4jTuPAk8waTPdajKI-33" value="&lt;b&gt;bufferSendOut:&lt;/b&gt;&lt;br&gt;Fw.BufferSend" style="rounded=1;whiteSpace=wrap;html=1;strokeColor=#000000;fontSize=12;strokeWidth=3;" vertex="1" parent="3OM4jTuPAk8waTPdajKI-18">
          <mxGeometry x="275" y="220" width="155" height="40" as="geometry" />
        </mxCell>
        <mxCell id="3OM4jTuPAk8waTPdajKI-34" value="" style="group;strokeWidth=3;" vertex="1" connectable="0" parent="1">
          <mxGeometry x="1970" y="120" width="420" height="330" as="geometry" />
        </mxCell>
        <mxCell id="3OM4jTuPAk8waTPdajKI-35" value="&lt;font size=&quot;3&quot;&gt;&lt;b&gt;fileManager&lt;/b&gt;&lt;br&gt;&lt;br&gt;Svc.FileManager&lt;br&gt;&lt;br&gt;active&lt;br&gt;&lt;/font&gt;" style="rounded=1;whiteSpace=wrap;html=1;fontSize=8;strokeColor=#3399FF;strokeWidth=3;" vertex="1" parent="3OM4jTuPAk8waTPdajKI-34">
          <mxGeometry x="50" width="260" height="330" as="geometry" />
        </mxCell>
        <mxCell id="3OM4jTuPAk8waTPdajKI-36" value="timeCaller" style="rounded=1;whiteSpace=wrap;html=1;strokeColor=#000000;fontSize=12;strokeWidth=3;" vertex="1" parent="3OM4jTuPAk8waTPdajKI-34">
          <mxGeometry y="20" width="80" height="40" as="geometry" />
        </mxCell>
        <mxCell id="3OM4jTuPAk8waTPdajKI-37" value="cmdRegOut" style="rounded=1;whiteSpace=wrap;html=1;strokeColor=#000000;fontSize=12;strokeWidth=3;" vertex="1" parent="3OM4jTuPAk8waTPdajKI-34">
          <mxGeometry y="70" width="80" height="40" as="geometry" />
        </mxCell>
        <mxCell id="3OM4jTuPAk8waTPdajKI-38" value="cmdIn" style="rounded=1;whiteSpace=wrap;html=1;strokeColor=#000000;fontSize=12;strokeWidth=3;" vertex="1" parent="3OM4jTuPAk8waTPdajKI-34">
          <mxGeometry y="120" width="80" height="40" as="geometry" />
        </mxCell>
        <mxCell id="3OM4jTuPAk8waTPdajKI-39" value="cmdResponseOut" style="rounded=1;whiteSpace=wrap;html=1;strokeColor=#000000;fontSize=12;strokeWidth=3;" vertex="1" parent="3OM4jTuPAk8waTPdajKI-34">
          <mxGeometry y="170" width="80" height="40" as="geometry" />
        </mxCell>
        <mxCell id="3OM4jTuPAk8waTPdajKI-40" value="&lt;b&gt;PingIn: &lt;br&gt;&lt;/b&gt;Svc.Ping" style="rounded=1;whiteSpace=wrap;html=1;strokeColor=#000000;fontSize=12;strokeWidth=3;" vertex="1" parent="3OM4jTuPAk8waTPdajKI-34">
          <mxGeometry x="265" y="30" width="155" height="40" as="geometry" />
        </mxCell>
        <mxCell id="3OM4jTuPAk8waTPdajKI-41" value="&lt;b&gt;PingOut: &lt;br&gt;&lt;/b&gt;Svc.Ping" style="rounded=1;whiteSpace=wrap;html=1;strokeColor=#000000;fontSize=12;strokeWidth=3;" vertex="1" parent="3OM4jTuPAk8waTPdajKI-34">
          <mxGeometry x="265" y="80" width="155" height="40" as="geometry" />
        </mxCell>
        <mxCell id="3OM4jTuPAk8waTPdajKI-42" value="eventOut" style="rounded=1;whiteSpace=wrap;html=1;strokeColor=#000000;fontSize=12;strokeWidth=3;" vertex="1" parent="3OM4jTuPAk8waTPdajKI-34">
          <mxGeometry y="220" width="80" height="40" as="geometry" />
        </mxCell>
        <mxCell id="3OM4jTuPAk8waTPdajKI-43" value="tlmOut" style="rounded=1;whiteSpace=wrap;html=1;strokeColor=#000000;fontSize=12;strokeWidth=3;" vertex="1" parent="3OM4jTuPAk8waTPdajKI-34">
          <mxGeometry y="270" width="80" height="40" as="geometry" />
        </mxCell>
        <mxCell id="3OM4jTuPAk8waTPdajKI-44" value="" style="group;strokeWidth=3;" vertex="1" connectable="0" parent="1">
          <mxGeometry x="530" y="1550" width="760" height="370" as="geometry" />
        </mxCell>
        <mxCell id="3OM4jTuPAk8waTPdajKI-45" value="" style="group;strokeWidth=3;" vertex="1" connectable="0" parent="3OM4jTuPAk8waTPdajKI-44">
          <mxGeometry x="-410" y="-30" width="370" height="340" as="geometry" />
        </mxCell>
        <mxCell id="3OM4jTuPAk8waTPdajKI-46" value="&lt;font size=&quot;3&quot;&gt;&lt;b&gt;tlmSend&lt;/b&gt;&lt;br&gt;&lt;br&gt;Svc.TlmChan&lt;br&gt;&lt;br&gt;active&lt;br&gt;&lt;/font&gt;" style="rounded=1;whiteSpace=wrap;html=1;fontSize=8;strokeColor=#3399FF;strokeWidth=3;" vertex="1" parent="3OM4jTuPAk8waTPdajKI-45">
          <mxGeometry width="260" height="340" as="geometry" />
        </mxCell>
        <mxCell id="3OM4jTuPAk8waTPdajKI-47" value="&lt;b&gt;TlmRecv: &lt;br&gt;&lt;/b&gt;Fw.Tlm" style="rounded=1;whiteSpace=wrap;html=1;strokeColor=#000000;fontSize=12;strokeWidth=3;" vertex="1" parent="3OM4jTuPAk8waTPdajKI-45">
          <mxGeometry x="215" y="30" width="155" height="40" as="geometry" />
        </mxCell>
        <mxCell id="3OM4jTuPAk8waTPdajKI-48" value="&lt;b&gt;TlmGet: &lt;br&gt;&lt;/b&gt;Fw.TlmGet" style="rounded=1;whiteSpace=wrap;html=1;strokeColor=#000000;fontSize=12;strokeWidth=3;" vertex="1" parent="3OM4jTuPAk8waTPdajKI-45">
          <mxGeometry x="215" y="80" width="155" height="40" as="geometry" />
        </mxCell>
        <mxCell id="3OM4jTuPAk8waTPdajKI-49" value="&lt;b&gt;Run: &lt;br&gt;&lt;/b&gt;Svc.Sched" style="rounded=1;whiteSpace=wrap;html=1;strokeColor=#000000;fontSize=12;strokeWidth=3;" vertex="1" parent="3OM4jTuPAk8waTPdajKI-45">
          <mxGeometry x="215" y="130" width="155" height="40" as="geometry" />
        </mxCell>
        <mxCell id="3OM4jTuPAk8waTPdajKI-50" value="&lt;b&gt;pingOut: &lt;br&gt;&lt;/b&gt;Svc.Ping" style="rounded=1;whiteSpace=wrap;html=1;strokeColor=#000000;fontSize=12;strokeWidth=3;" vertex="1" parent="3OM4jTuPAk8waTPdajKI-45">
          <mxGeometry x="215" y="230" width="155" height="40" as="geometry" />
        </mxCell>
        <mxCell id="3OM4jTuPAk8waTPdajKI-51" value="&lt;b&gt;pingIn: &lt;br&gt;&lt;/b&gt;Svc.Ping" style="rounded=1;whiteSpace=wrap;html=1;strokeColor=#000000;fontSize=12;strokeWidth=3;" vertex="1" parent="3OM4jTuPAk8waTPdajKI-45">
          <mxGeometry x="215" y="280" width="155" height="40" as="geometry" />
        </mxCell>
        <mxCell id="3OM4jTuPAk8waTPdajKI-52" value="&lt;b&gt;PktSend: &lt;br&gt;&lt;/b&gt;Fw.Com" style="rounded=1;whiteSpace=wrap;html=1;strokeColor=#000000;fontSize=12;strokeWidth=3;" vertex="1" parent="3OM4jTuPAk8waTPdajKI-45">
          <mxGeometry x="215" y="180" width="155" height="40" as="geometry" />
        </mxCell>
        <mxCell id="3OM4jTuPAk8waTPdajKI-53" style="edgeStyle=orthogonalEdgeStyle;rounded=0;orthogonalLoop=1;jettySize=auto;html=1;entryX=1;entryY=0.5;entryDx=0;entryDy=0;" edge="1" parent="3OM4jTuPAk8waTPdajKI-44" source="3OM4jTuPAk8waTPdajKI-54" target="3OM4jTuPAk8waTPdajKI-49">
          <mxGeometry relative="1" as="geometry" />
        </mxCell>
        <mxCell id="3OM4jTuPAk8waTPdajKI-54" value="&lt;b&gt;rate&lt;br&gt;Group3&lt;br&gt;&lt;/b&gt;" style="shape=process;whiteSpace=wrap;html=1;backgroundOutline=1;" vertex="1" parent="3OM4jTuPAk8waTPdajKI-44">
          <mxGeometry y="100" width="60" height="40" as="geometry" />
        </mxCell>
        <mxCell id="3OM4jTuPAk8waTPdajKI-55" value="" style="group;strokeWidth=3;" vertex="1" connectable="0" parent="3OM4jTuPAk8waTPdajKI-44">
          <mxGeometry x="340" y="-10" width="420" height="380" as="geometry" />
        </mxCell>
        <mxCell id="3OM4jTuPAk8waTPdajKI-56" value="&lt;font size=&quot;3&quot;&gt;&lt;b&gt;downlink&lt;/b&gt;&lt;br&gt;&lt;br&gt;Svc.Framer&lt;br&gt;&lt;br&gt;passive&lt;br&gt;&lt;/font&gt;" style="rounded=1;whiteSpace=wrap;html=1;fontSize=8;strokeColor=#3399FF;strokeWidth=3;" vertex="1" parent="3OM4jTuPAk8waTPdajKI-55">
          <mxGeometry x="50" width="260" height="380" as="geometry" />
        </mxCell>
        <mxCell id="3OM4jTuPAk8waTPdajKI-57" value="&lt;b&gt;comIn: &lt;br&gt;&lt;/b&gt;Fw.Com" style="rounded=1;whiteSpace=wrap;html=1;strokeColor=#000000;fontSize=12;strokeWidth=3;" vertex="1" parent="3OM4jTuPAk8waTPdajKI-55">
          <mxGeometry x="-40" y="30" width="155" height="40" as="geometry" />
        </mxCell>
        <mxCell id="3OM4jTuPAk8waTPdajKI-58" value="&lt;b&gt;bufferIn:&amp;nbsp;&lt;br&gt;&lt;/b&gt;Fw.BufferSend" style="rounded=1;whiteSpace=wrap;html=1;strokeColor=#000000;fontSize=12;strokeWidth=3;" vertex="1" parent="3OM4jTuPAk8waTPdajKI-55">
          <mxGeometry x="265" y="80" width="155" height="40" as="geometry" />
        </mxCell>
        <mxCell id="3OM4jTuPAk8waTPdajKI-59" value="&lt;b&gt;bufferDeallocate: &lt;/b&gt;Fw.BufferSend" style="rounded=1;whiteSpace=wrap;html=1;strokeColor=#000000;fontSize=12;strokeWidth=3;" vertex="1" parent="3OM4jTuPAk8waTPdajKI-55">
          <mxGeometry x="265" y="130" width="155" height="40" as="geometry" />
        </mxCell>
        <mxCell id="3OM4jTuPAk8waTPdajKI-60" value="&lt;b&gt;framedAllocate: &lt;/b&gt;Fw.BufferGet" style="rounded=1;whiteSpace=wrap;html=1;strokeColor=#000000;fontSize=12;strokeWidth=3;" vertex="1" parent="3OM4jTuPAk8waTPdajKI-55">
          <mxGeometry x="265" y="180" width="155" height="40" as="geometry" />
        </mxCell>
        <mxCell id="3OM4jTuPAk8waTPdajKI-61" value="&lt;b&gt;framedOut: &lt;/b&gt;Drv.ByteStreamSend" style="rounded=1;whiteSpace=wrap;html=1;strokeColor=#000000;fontSize=12;strokeWidth=3;" vertex="1" parent="3OM4jTuPAk8waTPdajKI-55">
          <mxGeometry x="265" y="230" width="155" height="40" as="geometry" />
        </mxCell>
        <mxCell id="3OM4jTuPAk8waTPdajKI-62" value="&lt;b&gt;comStatusIn: &lt;/b&gt;Fw.SuccessCondition" style="rounded=1;whiteSpace=wrap;html=1;strokeColor=#000000;fontSize=12;strokeWidth=3;" vertex="1" parent="3OM4jTuPAk8waTPdajKI-55">
          <mxGeometry x="265" y="280" width="155" height="40" as="geometry" />
        </mxCell>
        <mxCell id="3OM4jTuPAk8waTPdajKI-63" value="&lt;b&gt;comStatusOut: &lt;/b&gt;Fw.SuccessCondition" style="rounded=1;whiteSpace=wrap;html=1;strokeColor=#000000;fontSize=12;strokeWidth=3;" vertex="1" parent="3OM4jTuPAk8waTPdajKI-55">
          <mxGeometry x="265" y="330" width="155" height="40" as="geometry" />
        </mxCell>
        <mxCell id="3OM4jTuPAk8waTPdajKI-64" value="" style="edgeStyle=elbowEdgeStyle;elbow=horizontal;endArrow=classic;html=1;curved=0;rounded=0;endSize=8;startSize=8;exitX=1;exitY=0.5;exitDx=0;exitDy=0;entryX=0;entryY=0.5;entryDx=0;entryDy=0;strokeWidth=3;jumpStyle=arc;strokeColor=#000000;" edge="1" parent="3OM4jTuPAk8waTPdajKI-44" source="3OM4jTuPAk8waTPdajKI-52" target="3OM4jTuPAk8waTPdajKI-57">
          <mxGeometry width="50" height="50" relative="1" as="geometry">
            <mxPoint x="1490" y="-2240" as="sourcePoint" />
            <mxPoint x="1460" y="-1460" as="targetPoint" />
            <Array as="points" />
          </mxGeometry>
        </mxCell>
        <mxCell id="3OM4jTuPAk8waTPdajKI-65" value="" style="group;strokeWidth=3;" vertex="1" connectable="0" parent="1">
          <mxGeometry x="760" y="-440" width="250" height="390" as="geometry" />
        </mxCell>
        <mxCell id="3OM4jTuPAk8waTPdajKI-66" value="" style="rounded=0;whiteSpace=wrap;html=1;strokeColor=#000000;fontSize=12;strokeWidth=3;" vertex="1" parent="3OM4jTuPAk8waTPdajKI-65">
          <mxGeometry width="250" height="390" as="geometry" />
        </mxCell>
        <mxCell id="3OM4jTuPAk8waTPdajKI-67" value="Special ports" style="rounded=1;whiteSpace=wrap;html=1;strokeWidth=3;" vertex="1" parent="3OM4jTuPAk8waTPdajKI-65">
          <mxGeometry x="97.5" y="5" width="80" height="40" as="geometry" />
        </mxCell>
        <mxCell id="3OM4jTuPAk8waTPdajKI-68" value="General ports" style="rounded=1;whiteSpace=wrap;html=1;strokeWidth=3;" vertex="1" parent="3OM4jTuPAk8waTPdajKI-65">
          <mxGeometry x="60" y="55" width="155" height="40" as="geometry" />
        </mxCell>
        <mxCell id="3OM4jTuPAk8waTPdajKI-69" value="&lt;font size=&quot;3&quot;&gt;&lt;b&gt;fprime std component&lt;/b&gt;&lt;br&gt;&lt;/font&gt;" style="rounded=1;whiteSpace=wrap;html=1;fontSize=8;strokeColor=#3399FF;strokeWidth=3;" vertex="1" parent="3OM4jTuPAk8waTPdajKI-65">
          <mxGeometry x="62.5" y="105" width="150" height="130" as="geometry" />
        </mxCell>
        <mxCell id="3OM4jTuPAk8waTPdajKI-70" value="&lt;font size=&quot;3&quot;&gt;&lt;b&gt;fprime custom component&lt;/b&gt;&lt;br&gt;&lt;/font&gt;" style="rounded=1;whiteSpace=wrap;html=1;fontSize=8;strokeColor=#FF9933;strokeWidth=3;" vertex="1" parent="3OM4jTuPAk8waTPdajKI-65">
          <mxGeometry x="65" y="255" width="150" height="130" as="geometry" />
        </mxCell>
        <mxCell id="3OM4jTuPAk8waTPdajKI-71" value="" style="group;strokeWidth=3;" vertex="1" connectable="0" parent="1">
          <mxGeometry x="1370" y="-150" width="420" height="380" as="geometry" />
        </mxCell>
        <mxCell id="3OM4jTuPAk8waTPdajKI-72" value="" style="group;strokeWidth=3;" vertex="1" connectable="0" parent="3OM4jTuPAk8waTPdajKI-71">
          <mxGeometry width="420" height="380" as="geometry" />
        </mxCell>
        <mxCell id="3OM4jTuPAk8waTPdajKI-73" value="&lt;font size=&quot;3&quot;&gt;&lt;b&gt;health&lt;/b&gt;&lt;br&gt;&lt;br&gt;Svc.Health&lt;br&gt;&lt;br&gt;queued&lt;br&gt;&lt;/font&gt;" style="rounded=1;whiteSpace=wrap;html=1;fontSize=8;strokeColor=#3399FF;strokeWidth=3;" vertex="1" parent="3OM4jTuPAk8waTPdajKI-72">
          <mxGeometry x="50" width="260" height="380" as="geometry" />
        </mxCell>
        <mxCell id="3OM4jTuPAk8waTPdajKI-74" value="CmdDisp" style="rounded=1;whiteSpace=wrap;html=1;strokeColor=#000000;fontSize=12;strokeWidth=3;" vertex="1" parent="3OM4jTuPAk8waTPdajKI-72">
          <mxGeometry y="20" width="80" height="40" as="geometry" />
        </mxCell>
        <mxCell id="3OM4jTuPAk8waTPdajKI-75" value="&lt;b&gt;PingSend: &lt;br&gt;&lt;/b&gt;Svc.Ping" style="rounded=1;whiteSpace=wrap;html=1;strokeColor=#000000;fontSize=12;strokeWidth=3;" vertex="1" parent="3OM4jTuPAk8waTPdajKI-72">
          <mxGeometry x="265" y="30" width="155" height="40" as="geometry" />
        </mxCell>
        <mxCell id="3OM4jTuPAk8waTPdajKI-76" value="&lt;b&gt;PingReturn: &lt;br&gt;&lt;/b&gt;Svc.Ping" style="rounded=1;whiteSpace=wrap;html=1;strokeColor=#000000;fontSize=12;strokeWidth=3;" vertex="1" parent="3OM4jTuPAk8waTPdajKI-72">
          <mxGeometry x="265" y="80" width="155" height="40" as="geometry" />
        </mxCell>
        <mxCell id="3OM4jTuPAk8waTPdajKI-77" value="CmdStatus" style="rounded=1;whiteSpace=wrap;html=1;strokeColor=#000000;fontSize=12;strokeWidth=3;" vertex="1" parent="3OM4jTuPAk8waTPdajKI-72">
          <mxGeometry y="120" width="80" height="40" as="geometry" />
        </mxCell>
        <mxCell id="3OM4jTuPAk8waTPdajKI-78" value="CmdReg" style="rounded=1;whiteSpace=wrap;html=1;strokeColor=#000000;fontSize=12;strokeWidth=3;" vertex="1" parent="3OM4jTuPAk8waTPdajKI-72">
          <mxGeometry y="70" width="80" height="40" as="geometry" />
        </mxCell>
        <mxCell id="3OM4jTuPAk8waTPdajKI-79" value="&lt;b&gt;Run: &lt;br&gt;&lt;/b&gt;Svc.Sched" style="rounded=1;whiteSpace=wrap;html=1;strokeColor=#000000;fontSize=12;strokeWidth=3;" vertex="1" parent="3OM4jTuPAk8waTPdajKI-72">
          <mxGeometry x="265" y="130" width="155" height="40" as="geometry" />
        </mxCell>
        <mxCell id="3OM4jTuPAk8waTPdajKI-80" value="Log" style="rounded=1;whiteSpace=wrap;html=1;strokeColor=#000000;fontSize=12;strokeWidth=3;" vertex="1" parent="3OM4jTuPAk8waTPdajKI-72">
          <mxGeometry y="170" width="80" height="40" as="geometry" />
        </mxCell>
        <mxCell id="3OM4jTuPAk8waTPdajKI-81" value="&lt;b&gt;WdogStroke: &lt;/b&gt;Svc.WatchDog" style="rounded=1;whiteSpace=wrap;html=1;strokeColor=#000000;fontSize=12;strokeWidth=3;" vertex="1" parent="3OM4jTuPAk8waTPdajKI-72">
          <mxGeometry x="265" y="180" width="155" height="40" as="geometry" />
        </mxCell>
        <mxCell id="3OM4jTuPAk8waTPdajKI-82" value="LogText" style="rounded=1;whiteSpace=wrap;html=1;strokeColor=#000000;fontSize=12;strokeWidth=3;" vertex="1" parent="3OM4jTuPAk8waTPdajKI-72">
          <mxGeometry y="220" width="80" height="40" as="geometry" />
        </mxCell>
        <mxCell id="3OM4jTuPAk8waTPdajKI-83" value="Time" style="rounded=1;whiteSpace=wrap;html=1;strokeColor=#000000;fontSize=12;strokeWidth=3;" vertex="1" parent="3OM4jTuPAk8waTPdajKI-72">
          <mxGeometry y="270" width="80" height="40" as="geometry" />
        </mxCell>
        <mxCell id="3OM4jTuPAk8waTPdajKI-84" value="Tlm" style="rounded=1;whiteSpace=wrap;html=1;strokeColor=#000000;fontSize=12;strokeWidth=3;" vertex="1" parent="3OM4jTuPAk8waTPdajKI-71">
          <mxGeometry y="320" width="80" height="40" as="geometry" />
        </mxCell>
        <mxCell id="3OM4jTuPAk8waTPdajKI-85" value="" style="group;strokeWidth=3;" vertex="1" connectable="0" parent="1">
          <mxGeometry x="1425" y="-520" width="430" height="230" as="geometry" />
        </mxCell>
        <mxCell id="3OM4jTuPAk8waTPdajKI-86" value="&lt;font size=&quot;3&quot;&gt;&lt;b&gt;linuxTime&lt;/b&gt;&lt;br&gt;&lt;br&gt;Svc.Time&lt;br&gt;&lt;br&gt;passive&lt;br&gt;&lt;/font&gt;" style="rounded=1;whiteSpace=wrap;html=1;fontSize=8;strokeColor=#3399FF;strokeWidth=3;" vertex="1" parent="3OM4jTuPAk8waTPdajKI-85">
          <mxGeometry x="30" y="40" width="260" height="130" as="geometry" />
        </mxCell>
        <mxCell id="3OM4jTuPAk8waTPdajKI-87" value="&lt;b&gt;timeGetPort: &lt;br&gt;&lt;/b&gt;Fw.Time" style="rounded=1;whiteSpace=wrap;html=1;strokeColor=#000000;fontSize=12;strokeWidth=3;" vertex="1" parent="3OM4jTuPAk8waTPdajKI-85">
          <mxGeometry x="245" y="70" width="155" height="40" as="geometry" />
        </mxCell>
        <mxCell id="3OM4jTuPAk8waTPdajKI-88" value="" style="group;strokeWidth=3;" vertex="1" connectable="0" parent="1">
          <mxGeometry x="1370" y="280" width="420" height="380" as="geometry" />
        </mxCell>
        <mxCell id="3OM4jTuPAk8waTPdajKI-89" value="" style="group;strokeWidth=3;" vertex="1" connectable="0" parent="3OM4jTuPAk8waTPdajKI-88">
          <mxGeometry width="420" height="380" as="geometry" />
        </mxCell>
        <mxCell id="3OM4jTuPAk8waTPdajKI-90" value="&lt;font size=&quot;3&quot;&gt;&lt;b&gt;systemResources&lt;/b&gt;&lt;br&gt;&lt;br&gt;Svc.SystemResources&lt;br&gt;&lt;br&gt;passive&lt;br&gt;&lt;/font&gt;" style="rounded=1;whiteSpace=wrap;html=1;fontSize=8;strokeColor=#3399FF;strokeWidth=3;" vertex="1" parent="3OM4jTuPAk8waTPdajKI-89">
          <mxGeometry x="50" width="260" height="380" as="geometry" />
        </mxCell>
        <mxCell id="3OM4jTuPAk8waTPdajKI-91" value="CmdDisp" style="rounded=1;whiteSpace=wrap;html=1;strokeColor=#000000;fontSize=12;strokeWidth=3;" vertex="1" parent="3OM4jTuPAk8waTPdajKI-89">
          <mxGeometry y="20" width="80" height="40" as="geometry" />
        </mxCell>
        <mxCell id="3OM4jTuPAk8waTPdajKI-92" value="&lt;b&gt;run: &lt;br&gt;&lt;/b&gt;Svc.Sched" style="rounded=1;whiteSpace=wrap;html=1;strokeColor=#000000;fontSize=12;strokeWidth=3;" vertex="1" parent="3OM4jTuPAk8waTPdajKI-89">
          <mxGeometry x="265" y="30" width="155" height="40" as="geometry" />
        </mxCell>
        <mxCell id="3OM4jTuPAk8waTPdajKI-93" value="CmdStatus" style="rounded=1;whiteSpace=wrap;html=1;strokeColor=#000000;fontSize=12;strokeWidth=3;" vertex="1" parent="3OM4jTuPAk8waTPdajKI-89">
          <mxGeometry y="120" width="80" height="40" as="geometry" />
        </mxCell>
        <mxCell id="3OM4jTuPAk8waTPdajKI-94" value="CmdReg" style="rounded=1;whiteSpace=wrap;html=1;strokeColor=#000000;fontSize=12;strokeWidth=3;" vertex="1" parent="3OM4jTuPAk8waTPdajKI-89">
          <mxGeometry y="70" width="80" height="40" as="geometry" />
        </mxCell>
        <mxCell id="3OM4jTuPAk8waTPdajKI-95" value="Log" style="rounded=1;whiteSpace=wrap;html=1;strokeColor=#000000;fontSize=12;strokeWidth=3;" vertex="1" parent="3OM4jTuPAk8waTPdajKI-89">
          <mxGeometry y="170" width="80" height="40" as="geometry" />
        </mxCell>
        <mxCell id="3OM4jTuPAk8waTPdajKI-96" value="LogText" style="rounded=1;whiteSpace=wrap;html=1;strokeColor=#000000;fontSize=12;strokeWidth=3;" vertex="1" parent="3OM4jTuPAk8waTPdajKI-89">
          <mxGeometry y="220" width="80" height="40" as="geometry" />
        </mxCell>
        <mxCell id="3OM4jTuPAk8waTPdajKI-97" value="Time" style="rounded=1;whiteSpace=wrap;html=1;strokeColor=#000000;fontSize=12;strokeWidth=3;" vertex="1" parent="3OM4jTuPAk8waTPdajKI-89">
          <mxGeometry y="270" width="80" height="40" as="geometry" />
        </mxCell>
        <mxCell id="3OM4jTuPAk8waTPdajKI-98" value="Tlm" style="rounded=1;whiteSpace=wrap;html=1;strokeColor=#000000;fontSize=12;strokeWidth=3;" vertex="1" parent="3OM4jTuPAk8waTPdajKI-88">
          <mxGeometry y="320" width="80" height="40" as="geometry" />
        </mxCell>
        <mxCell id="3OM4jTuPAk8waTPdajKI-99" value="" style="group;strokeWidth=3;" vertex="1" connectable="0" parent="1">
          <mxGeometry x="1450" y="-300" width="370" height="130" as="geometry" />
        </mxCell>
        <mxCell id="3OM4jTuPAk8waTPdajKI-100" value="&lt;font size=&quot;3&quot;&gt;&lt;b&gt;textLogger&lt;/b&gt;&lt;br&gt;&lt;br&gt;Svc.PassiveTextLogger&lt;br&gt;&lt;br&gt;passive&lt;br&gt;&lt;/font&gt;" style="rounded=1;whiteSpace=wrap;html=1;fontSize=8;strokeColor=#3399FF;strokeWidth=3;" vertex="1" parent="3OM4jTuPAk8waTPdajKI-99">
          <mxGeometry width="260" height="130" as="geometry" />
        </mxCell>
        <mxCell id="3OM4jTuPAk8waTPdajKI-101" value="&lt;b&gt;TextLogger:&lt;br&gt;&lt;/b&gt;Svc.LogText" style="rounded=1;whiteSpace=wrap;html=1;strokeColor=#000000;fontSize=12;strokeWidth=3;" vertex="1" parent="3OM4jTuPAk8waTPdajKI-99">
          <mxGeometry x="215" y="30" width="155" height="40" as="geometry" />
        </mxCell>
        <mxCell id="3OM4jTuPAk8waTPdajKI-102" value="" style="edgeStyle=elbowEdgeStyle;elbow=horizontal;endArrow=classic;html=1;curved=0;rounded=0;endSize=8;startSize=8;exitX=1;exitY=0.5;exitDx=0;exitDy=0;entryX=1;entryY=0.5;entryDx=0;entryDy=0;strokeWidth=3;jumpStyle=arc;" edge="1" parent="1" source="3OM4jTuPAk8waTPdajKI-192" target="3OM4jTuPAk8waTPdajKI-182">
          <mxGeometry width="50" height="50" relative="1" as="geometry">
            <mxPoint x="550" y="-250" as="sourcePoint" />
            <mxPoint x="600" y="-300" as="targetPoint" />
            <Array as="points">
              <mxPoint x="550" y="-140" />
            </Array>
          </mxGeometry>
        </mxCell>
        <mxCell id="3OM4jTuPAk8waTPdajKI-103" value="" style="edgeStyle=elbowEdgeStyle;elbow=horizontal;endArrow=classic;html=1;curved=0;rounded=0;endSize=8;startSize=8;exitX=1;exitY=0.5;exitDx=0;exitDy=0;entryX=1;entryY=0.5;entryDx=0;entryDy=0;strokeWidth=3;jumpStyle=arc;" edge="1" parent="1" source="3OM4jTuPAk8waTPdajKI-183" target="3OM4jTuPAk8waTPdajKI-202">
          <mxGeometry width="50" height="50" relative="1" as="geometry">
            <mxPoint x="580" y="40" as="sourcePoint" />
            <mxPoint x="570" y="320" as="targetPoint" />
            <Array as="points">
              <mxPoint x="620" y="130" />
            </Array>
          </mxGeometry>
        </mxCell>
        <mxCell id="3OM4jTuPAk8waTPdajKI-104" value="" style="edgeStyle=elbowEdgeStyle;elbow=horizontal;endArrow=classic;html=1;curved=0;rounded=0;endSize=8;startSize=8;exitX=1;exitY=0.5;exitDx=0;exitDy=0;entryX=1;entryY=0.5;entryDx=0;entryDy=0;strokeWidth=3;jumpStyle=arc;" edge="1" parent="1" source="3OM4jTuPAk8waTPdajKI-183" target="3OM4jTuPAk8waTPdajKI-212">
          <mxGeometry width="50" height="50" relative="1" as="geometry">
            <mxPoint x="520" y="60" as="sourcePoint" />
            <mxPoint x="550" y="210" as="targetPoint" />
            <Array as="points">
              <mxPoint x="620" y="190" />
            </Array>
          </mxGeometry>
        </mxCell>
        <mxCell id="3OM4jTuPAk8waTPdajKI-105" value="" style="edgeStyle=elbowEdgeStyle;elbow=horizontal;endArrow=classic;html=1;curved=0;rounded=0;endSize=8;startSize=8;exitX=1;exitY=0.5;exitDx=0;exitDy=0;entryX=1;entryY=0.5;entryDx=0;entryDy=0;strokeWidth=3;jumpStyle=arc;" edge="1" parent="1" source="3OM4jTuPAk8waTPdajKI-183" target="3OM4jTuPAk8waTPdajKI-176">
          <mxGeometry width="50" height="50" relative="1" as="geometry">
            <mxPoint x="530" y="70" as="sourcePoint" />
            <mxPoint x="560" y="580" as="targetPoint" />
            <Array as="points">
              <mxPoint x="620" y="400" />
            </Array>
          </mxGeometry>
        </mxCell>
        <mxCell id="3OM4jTuPAk8waTPdajKI-106" value="" style="edgeStyle=elbowEdgeStyle;elbow=horizontal;endArrow=classic;html=1;curved=0;rounded=0;endSize=8;startSize=8;exitX=1;exitY=0.5;exitDx=0;exitDy=0;entryX=1;entryY=0.5;entryDx=0;entryDy=0;strokeWidth=3;jumpStyle=arc;" edge="1" parent="1" source="3OM4jTuPAk8waTPdajKI-11" target="3OM4jTuPAk8waTPdajKI-135">
          <mxGeometry width="50" height="50" relative="1" as="geometry">
            <mxPoint x="1800" y="530" as="sourcePoint" />
            <mxPoint x="1850" y="480" as="targetPoint" />
            <Array as="points">
              <mxPoint x="1280" y="570" />
            </Array>
          </mxGeometry>
        </mxCell>
        <mxCell id="3OM4jTuPAk8waTPdajKI-107" value="" style="edgeStyle=elbowEdgeStyle;elbow=horizontal;endArrow=classic;html=1;curved=0;rounded=0;endSize=8;startSize=8;exitX=1;exitY=0.5;exitDx=0;exitDy=0;entryX=1;entryY=0.5;entryDx=0;entryDy=0;strokeWidth=3;jumpStyle=arc;strokeColor=#000000;" edge="1" parent="1" source="3OM4jTuPAk8waTPdajKI-134" target="3OM4jTuPAk8waTPdajKI-6">
          <mxGeometry width="50" height="50" relative="1" as="geometry">
            <mxPoint x="1880" y="310" as="sourcePoint" />
            <mxPoint x="1880" y="770" as="targetPoint" />
            <Array as="points">
              <mxPoint x="1300" y="460" />
            </Array>
          </mxGeometry>
        </mxCell>
        <mxCell id="3OM4jTuPAk8waTPdajKI-108" value="" style="group;strokeWidth=3;" vertex="1" connectable="0" parent="1">
          <mxGeometry x="1970" y="480" width="310" height="180" as="geometry" />
        </mxCell>
        <mxCell id="3OM4jTuPAk8waTPdajKI-109" value="&lt;font size=&quot;3&quot;&gt;&lt;b&gt;fatalAdapter&lt;/b&gt;&lt;br&gt;&lt;br&gt;Svc.AssertFatalAdapter&lt;br&gt;&lt;br&gt;passive&lt;br&gt;&lt;/font&gt;" style="rounded=1;whiteSpace=wrap;html=1;fontSize=8;strokeColor=#3399FF;strokeWidth=3;" vertex="1" parent="3OM4jTuPAk8waTPdajKI-108">
          <mxGeometry x="50" width="260" height="180" as="geometry" />
        </mxCell>
        <mxCell id="3OM4jTuPAk8waTPdajKI-110" value="Log" style="rounded=1;whiteSpace=wrap;html=1;strokeColor=#000000;fontSize=12;strokeWidth=3;" vertex="1" parent="3OM4jTuPAk8waTPdajKI-108">
          <mxGeometry y="20" width="80" height="40" as="geometry" />
        </mxCell>
        <mxCell id="3OM4jTuPAk8waTPdajKI-111" value="Time" style="rounded=1;whiteSpace=wrap;html=1;strokeColor=#000000;fontSize=12;strokeWidth=3;" vertex="1" parent="3OM4jTuPAk8waTPdajKI-108">
          <mxGeometry y="120" width="80" height="40" as="geometry" />
        </mxCell>
        <mxCell id="3OM4jTuPAk8waTPdajKI-112" value="LogText" style="rounded=1;whiteSpace=wrap;html=1;strokeColor=#000000;fontSize=12;strokeWidth=3;" vertex="1" parent="3OM4jTuPAk8waTPdajKI-108">
          <mxGeometry y="70" width="80" height="40" as="geometry" />
        </mxCell>
        <mxCell id="3OM4jTuPAk8waTPdajKI-113" value="" style="group;strokeWidth=3;" vertex="1" connectable="0" parent="1">
          <mxGeometry x="1970" y="-260" width="420" height="330" as="geometry" />
        </mxCell>
        <mxCell id="3OM4jTuPAk8waTPdajKI-114" value="&lt;font size=&quot;3&quot;&gt;&lt;b&gt;prmDb&lt;/b&gt;&lt;br&gt;&lt;br&gt;Svc.PrmDb&lt;br&gt;&lt;br&gt;active&lt;br&gt;&lt;/font&gt;" style="rounded=1;whiteSpace=wrap;html=1;fontSize=8;strokeColor=#3399FF;strokeWidth=3;" vertex="1" parent="3OM4jTuPAk8waTPdajKI-113">
          <mxGeometry x="50" width="260" height="330" as="geometry" />
        </mxCell>
        <mxCell id="3OM4jTuPAk8waTPdajKI-115" value="CmdDisp" style="rounded=1;whiteSpace=wrap;html=1;strokeColor=#000000;fontSize=12;strokeWidth=3;" vertex="1" parent="3OM4jTuPAk8waTPdajKI-113">
          <mxGeometry y="20" width="80" height="40" as="geometry" />
        </mxCell>
        <mxCell id="3OM4jTuPAk8waTPdajKI-116" value="&lt;b&gt;getPrm: &lt;br&gt;&lt;/b&gt;Fw.PrmGet" style="rounded=1;whiteSpace=wrap;html=1;strokeColor=#000000;fontSize=12;strokeWidth=3;" vertex="1" parent="3OM4jTuPAk8waTPdajKI-113">
          <mxGeometry x="265" y="30" width="155" height="40" as="geometry" />
        </mxCell>
        <mxCell id="3OM4jTuPAk8waTPdajKI-117" value="&lt;b&gt;setPrm: &lt;br&gt;&lt;/b&gt;Fw.PrmSet" style="rounded=1;whiteSpace=wrap;html=1;strokeColor=#000000;fontSize=12;strokeWidth=3;" vertex="1" parent="3OM4jTuPAk8waTPdajKI-113">
          <mxGeometry x="265" y="80" width="155" height="40" as="geometry" />
        </mxCell>
        <mxCell id="3OM4jTuPAk8waTPdajKI-118" value="CmdStatus" style="rounded=1;whiteSpace=wrap;html=1;strokeColor=#000000;fontSize=12;strokeWidth=3;" vertex="1" parent="3OM4jTuPAk8waTPdajKI-113">
          <mxGeometry y="120" width="80" height="40" as="geometry" />
        </mxCell>
        <mxCell id="3OM4jTuPAk8waTPdajKI-119" value="CmdReg" style="rounded=1;whiteSpace=wrap;html=1;strokeColor=#000000;fontSize=12;strokeWidth=3;" vertex="1" parent="3OM4jTuPAk8waTPdajKI-113">
          <mxGeometry y="70" width="80" height="40" as="geometry" />
        </mxCell>
        <mxCell id="3OM4jTuPAk8waTPdajKI-120" value="&lt;b&gt;PingOut: &lt;br&gt;&lt;/b&gt;Svc.Ping" style="rounded=1;whiteSpace=wrap;html=1;strokeColor=#000000;fontSize=12;strokeWidth=3;" vertex="1" parent="3OM4jTuPAk8waTPdajKI-113">
          <mxGeometry x="265" y="130" width="155" height="40" as="geometry" />
        </mxCell>
        <mxCell id="3OM4jTuPAk8waTPdajKI-121" value="Log" style="rounded=1;whiteSpace=wrap;html=1;strokeColor=#000000;fontSize=12;strokeWidth=3;" vertex="1" parent="3OM4jTuPAk8waTPdajKI-113">
          <mxGeometry y="170" width="80" height="40" as="geometry" />
        </mxCell>
        <mxCell id="3OM4jTuPAk8waTPdajKI-122" value="&lt;b&gt;PingIn: &lt;br&gt;&lt;/b&gt;Svc.Ping" style="rounded=1;whiteSpace=wrap;html=1;strokeColor=#000000;fontSize=12;strokeWidth=3;" vertex="1" parent="3OM4jTuPAk8waTPdajKI-113">
          <mxGeometry x="265" y="180" width="155" height="40" as="geometry" />
        </mxCell>
        <mxCell id="3OM4jTuPAk8waTPdajKI-123" value="LogText" style="rounded=1;whiteSpace=wrap;html=1;strokeColor=#000000;fontSize=12;strokeWidth=3;" vertex="1" parent="3OM4jTuPAk8waTPdajKI-113">
          <mxGeometry y="220" width="80" height="40" as="geometry" />
        </mxCell>
        <mxCell id="3OM4jTuPAk8waTPdajKI-124" value="Time" style="rounded=1;whiteSpace=wrap;html=1;strokeColor=#000000;fontSize=12;strokeWidth=3;" vertex="1" parent="3OM4jTuPAk8waTPdajKI-113">
          <mxGeometry y="270" width="80" height="40" as="geometry" />
        </mxCell>
        <mxCell id="3OM4jTuPAk8waTPdajKI-125" value="" style="group;strokeWidth=3;" vertex="1" connectable="0" parent="1">
          <mxGeometry x="710" y="550" width="430" height="400" as="geometry" />
        </mxCell>
        <mxCell id="3OM4jTuPAk8waTPdajKI-126" value="&lt;font size=&quot;3&quot;&gt;&lt;b&gt;cmdDisp&lt;/b&gt;&lt;br&gt;&lt;br&gt;Svc.CommandDispatcher&lt;br&gt;&lt;br&gt;active&lt;br&gt;&lt;/font&gt;" style="rounded=1;whiteSpace=wrap;html=1;fontSize=8;strokeColor=#3399FF;strokeWidth=3;" vertex="1" parent="3OM4jTuPAk8waTPdajKI-125">
          <mxGeometry x="50" width="260" height="400" as="geometry" />
        </mxCell>
        <mxCell id="3OM4jTuPAk8waTPdajKI-127" value="CmdDisp" style="rounded=1;whiteSpace=wrap;html=1;strokeColor=#000000;fontSize=12;strokeWidth=3;" vertex="1" parent="3OM4jTuPAk8waTPdajKI-125">
          <mxGeometry y="20" width="80" height="40" as="geometry" />
        </mxCell>
        <mxCell id="3OM4jTuPAk8waTPdajKI-128" value="CmdReg" style="rounded=1;whiteSpace=wrap;html=1;strokeColor=#000000;fontSize=12;strokeWidth=3;" vertex="1" parent="3OM4jTuPAk8waTPdajKI-125">
          <mxGeometry y="70" width="80" height="40" as="geometry" />
        </mxCell>
        <mxCell id="3OM4jTuPAk8waTPdajKI-129" value="&lt;b&gt;compCmdSend&lt;/b&gt;: &lt;br&gt;Fw.Cmd" style="rounded=1;whiteSpace=wrap;html=1;strokeColor=#000000;fontSize=12;strokeWidth=3;" vertex="1" parent="3OM4jTuPAk8waTPdajKI-125">
          <mxGeometry x="275" y="20" width="155" height="40" as="geometry" />
        </mxCell>
        <mxCell id="3OM4jTuPAk8waTPdajKI-130" value="&lt;b&gt;compCmdReg: &lt;/b&gt;Fw.CmdReg" style="rounded=1;whiteSpace=wrap;html=1;strokeColor=#000000;fontSize=12;strokeWidth=3;" vertex="1" parent="3OM4jTuPAk8waTPdajKI-125">
          <mxGeometry x="275" y="70" width="155" height="40" as="geometry" />
        </mxCell>
        <mxCell id="3OM4jTuPAk8waTPdajKI-131" value="Log" style="rounded=1;whiteSpace=wrap;html=1;strokeColor=#000000;fontSize=12;strokeWidth=3;" vertex="1" parent="3OM4jTuPAk8waTPdajKI-125">
          <mxGeometry y="170" width="80" height="40" as="geometry" />
        </mxCell>
        <mxCell id="3OM4jTuPAk8waTPdajKI-132" value="CmdStatus" style="rounded=1;whiteSpace=wrap;html=1;strokeColor=#000000;fontSize=12;strokeWidth=3;" vertex="1" parent="3OM4jTuPAk8waTPdajKI-125">
          <mxGeometry y="120" width="80" height="40" as="geometry" />
        </mxCell>
        <mxCell id="3OM4jTuPAk8waTPdajKI-133" value="&lt;b&gt;compCmdStat: &lt;/b&gt;Fw.CmdResponse" style="rounded=1;whiteSpace=wrap;html=1;strokeColor=#000000;fontSize=12;strokeWidth=3;" vertex="1" parent="3OM4jTuPAk8waTPdajKI-125">
          <mxGeometry x="275" y="120" width="155" height="40" as="geometry" />
        </mxCell>
        <mxCell id="3OM4jTuPAk8waTPdajKI-134" value="&lt;b&gt;seqCmdStatus: &lt;/b&gt;Fw.CmdResponse" style="rounded=1;whiteSpace=wrap;html=1;strokeColor=#000000;fontSize=12;strokeWidth=3;" vertex="1" parent="3OM4jTuPAk8waTPdajKI-125">
          <mxGeometry x="275" y="170" width="155" height="40" as="geometry" />
        </mxCell>
        <mxCell id="3OM4jTuPAk8waTPdajKI-135" value="&lt;b&gt;seqCmdBuff: &lt;br&gt;&lt;/b&gt;Fw.Com" style="rounded=1;whiteSpace=wrap;html=1;strokeColor=#000000;fontSize=12;strokeWidth=3;" vertex="1" parent="3OM4jTuPAk8waTPdajKI-125">
          <mxGeometry x="275" y="220" width="155" height="40" as="geometry" />
        </mxCell>
        <mxCell id="3OM4jTuPAk8waTPdajKI-136" value="&lt;b&gt;pingIn: &lt;br&gt;&lt;/b&gt;Svc.Ping" style="rounded=1;whiteSpace=wrap;html=1;strokeColor=#000000;fontSize=12;strokeWidth=3;" vertex="1" parent="3OM4jTuPAk8waTPdajKI-125">
          <mxGeometry x="275" y="270" width="155" height="40" as="geometry" />
        </mxCell>
        <mxCell id="3OM4jTuPAk8waTPdajKI-137" value="&lt;b&gt;pingOut: &lt;br&gt;&lt;/b&gt;Svc.Ping" style="rounded=1;whiteSpace=wrap;html=1;strokeColor=#000000;fontSize=12;strokeWidth=3;" vertex="1" parent="3OM4jTuPAk8waTPdajKI-125">
          <mxGeometry x="275" y="320" width="155" height="40" as="geometry" />
        </mxCell>
        <mxCell id="3OM4jTuPAk8waTPdajKI-138" value="Time" style="rounded=1;whiteSpace=wrap;html=1;strokeColor=#000000;fontSize=12;strokeWidth=3;" vertex="1" parent="3OM4jTuPAk8waTPdajKI-125">
          <mxGeometry y="270" width="80" height="40" as="geometry" />
        </mxCell>
        <mxCell id="3OM4jTuPAk8waTPdajKI-139" value="LogText" style="rounded=1;whiteSpace=wrap;html=1;strokeColor=#000000;fontSize=12;strokeWidth=3;" vertex="1" parent="3OM4jTuPAk8waTPdajKI-125">
          <mxGeometry y="220" width="80" height="40" as="geometry" />
        </mxCell>
        <mxCell id="3OM4jTuPAk8waTPdajKI-140" value="Tlm" style="rounded=1;whiteSpace=wrap;html=1;strokeColor=#000000;fontSize=12;strokeWidth=3;" vertex="1" parent="3OM4jTuPAk8waTPdajKI-125">
          <mxGeometry y="320" width="80" height="40" as="geometry" />
        </mxCell>
        <mxCell id="3OM4jTuPAk8waTPdajKI-141" value="" style="group;strokeWidth=3;" vertex="1" connectable="0" parent="1">
          <mxGeometry x="80" y="940" width="420" height="330" as="geometry" />
        </mxCell>
        <mxCell id="3OM4jTuPAk8waTPdajKI-142" value="&lt;font size=&quot;3&quot;&gt;&lt;b&gt;eventLogger&lt;/b&gt;&lt;br&gt;&lt;br&gt;Svc.ActiveLogger&lt;br&gt;&lt;br&gt;active&lt;br&gt;&lt;/font&gt;" style="rounded=1;whiteSpace=wrap;html=1;fontSize=8;strokeColor=#3399FF;strokeWidth=3;" vertex="1" parent="3OM4jTuPAk8waTPdajKI-141">
          <mxGeometry x="50" width="260" height="330" as="geometry" />
        </mxCell>
        <mxCell id="3OM4jTuPAk8waTPdajKI-143" value="CmdDisp" style="rounded=1;whiteSpace=wrap;html=1;strokeColor=#000000;fontSize=12;strokeWidth=3;" vertex="1" parent="3OM4jTuPAk8waTPdajKI-141">
          <mxGeometry y="20" width="80" height="40" as="geometry" />
        </mxCell>
        <mxCell id="3OM4jTuPAk8waTPdajKI-144" value="&lt;b&gt;LogRecv: &lt;br&gt;&lt;/b&gt;Fw.Log" style="rounded=1;whiteSpace=wrap;html=1;strokeColor=#000000;fontSize=12;strokeWidth=3;" vertex="1" parent="3OM4jTuPAk8waTPdajKI-141">
          <mxGeometry x="265" y="30" width="155" height="40" as="geometry" />
        </mxCell>
        <mxCell id="3OM4jTuPAk8waTPdajKI-145" value="&lt;b&gt;PktSend: &lt;br&gt;&lt;/b&gt;Fw.Com" style="rounded=1;whiteSpace=wrap;html=1;strokeColor=#000000;fontSize=12;strokeWidth=3;" vertex="1" parent="3OM4jTuPAk8waTPdajKI-141">
          <mxGeometry x="265" y="80" width="155" height="40" as="geometry" />
        </mxCell>
        <mxCell id="3OM4jTuPAk8waTPdajKI-146" value="CmdStatus" style="rounded=1;whiteSpace=wrap;html=1;strokeColor=#000000;fontSize=12;strokeWidth=3;" vertex="1" parent="3OM4jTuPAk8waTPdajKI-141">
          <mxGeometry y="120" width="80" height="40" as="geometry" />
        </mxCell>
        <mxCell id="3OM4jTuPAk8waTPdajKI-147" value="CmdReg" style="rounded=1;whiteSpace=wrap;html=1;strokeColor=#000000;fontSize=12;strokeWidth=3;" vertex="1" parent="3OM4jTuPAk8waTPdajKI-141">
          <mxGeometry y="70" width="80" height="40" as="geometry" />
        </mxCell>
        <mxCell id="3OM4jTuPAk8waTPdajKI-148" value="&lt;b&gt;FatalAnnounce: &lt;/b&gt;Svc.FatalEvent" style="rounded=1;whiteSpace=wrap;html=1;strokeColor=#000000;fontSize=12;strokeWidth=3;" vertex="1" parent="3OM4jTuPAk8waTPdajKI-141">
          <mxGeometry x="265" y="130" width="155" height="40" as="geometry" />
        </mxCell>
        <mxCell id="3OM4jTuPAk8waTPdajKI-149" value="&lt;b&gt;PingOut: &lt;br&gt;&lt;/b&gt;Svc.Ping" style="rounded=1;whiteSpace=wrap;html=1;strokeColor=#000000;fontSize=12;strokeWidth=3;" vertex="1" parent="3OM4jTuPAk8waTPdajKI-141">
          <mxGeometry x="265" y="180" width="155" height="40" as="geometry" />
        </mxCell>
        <mxCell id="3OM4jTuPAk8waTPdajKI-150" value="Log" style="rounded=1;whiteSpace=wrap;html=1;strokeColor=#000000;fontSize=12;strokeWidth=3;" vertex="1" parent="3OM4jTuPAk8waTPdajKI-141">
          <mxGeometry y="170" width="80" height="40" as="geometry" />
        </mxCell>
        <mxCell id="3OM4jTuPAk8waTPdajKI-151" value="&lt;b&gt;PingIn: &lt;br&gt;&lt;/b&gt;Svc.Ping" style="rounded=1;whiteSpace=wrap;html=1;strokeColor=#000000;fontSize=12;strokeWidth=3;" vertex="1" parent="3OM4jTuPAk8waTPdajKI-141">
          <mxGeometry x="265" y="230" width="155" height="40" as="geometry" />
        </mxCell>
        <mxCell id="3OM4jTuPAk8waTPdajKI-152" value="LogText" style="rounded=1;whiteSpace=wrap;html=1;strokeColor=#000000;fontSize=12;strokeWidth=3;" vertex="1" parent="3OM4jTuPAk8waTPdajKI-141">
          <mxGeometry y="220" width="80" height="40" as="geometry" />
        </mxCell>
        <mxCell id="3OM4jTuPAk8waTPdajKI-153" value="Time" style="rounded=1;whiteSpace=wrap;html=1;strokeColor=#000000;fontSize=12;strokeWidth=3;" vertex="1" parent="3OM4jTuPAk8waTPdajKI-141">
          <mxGeometry y="270" width="80" height="40" as="geometry" />
        </mxCell>
        <mxCell id="3OM4jTuPAk8waTPdajKI-154" value="" style="edgeStyle=elbowEdgeStyle;elbow=horizontal;endArrow=classic;html=1;curved=0;rounded=0;endSize=8;startSize=8;exitX=1;exitY=0.5;exitDx=0;exitDy=0;entryX=1;entryY=0.5;entryDx=0;entryDy=0;strokeWidth=3;jumpStyle=arc;" edge="1" parent="1" source="3OM4jTuPAk8waTPdajKI-148" target="3OM4jTuPAk8waTPdajKI-218">
          <mxGeometry width="50" height="50" relative="1" as="geometry">
            <mxPoint x="710" y="1160" as="sourcePoint" />
            <mxPoint x="760" y="1110" as="targetPoint" />
            <Array as="points">
              <mxPoint x="580" y="1220" />
            </Array>
          </mxGeometry>
        </mxCell>
        <mxCell id="3OM4jTuPAk8waTPdajKI-155" value="" style="edgeStyle=elbowEdgeStyle;elbow=horizontal;endArrow=classic;html=1;curved=0;rounded=0;endSize=8;startSize=8;exitX=1;exitY=0.5;exitDx=0;exitDy=0;entryX=1;entryY=0.5;entryDx=0;entryDy=0;strokeWidth=3;jumpStyle=arc;strokeColor=#000000;" edge="1" parent="1" source="3OM4jTuPAk8waTPdajKI-33" target="3OM4jTuPAk8waTPdajKI-58">
          <mxGeometry width="50" height="50" relative="1" as="geometry">
            <mxPoint x="1720" y="-270" as="sourcePoint" />
            <mxPoint x="1699" y="490" as="targetPoint" />
            <Array as="points">
              <mxPoint x="1360" y="1530" />
            </Array>
          </mxGeometry>
        </mxCell>
        <mxCell id="3OM4jTuPAk8waTPdajKI-156" value="" style="edgeStyle=elbowEdgeStyle;elbow=horizontal;endArrow=classic;html=1;curved=0;rounded=0;endSize=8;startSize=8;exitX=1;exitY=0.5;exitDx=0;exitDy=0;entryX=1;entryY=0.5;entryDx=0;entryDy=0;strokeWidth=3;jumpStyle=arc;strokeColor=#000000;" edge="1" parent="1" source="3OM4jTuPAk8waTPdajKI-60" target="3OM4jTuPAk8waTPdajKI-168">
          <mxGeometry width="50" height="50" relative="1" as="geometry">
            <mxPoint x="1450" y="950" as="sourcePoint" />
            <mxPoint x="1500" y="900" as="targetPoint" />
            <Array as="points">
              <mxPoint x="2030" y="1720" />
            </Array>
          </mxGeometry>
        </mxCell>
        <mxCell id="3OM4jTuPAk8waTPdajKI-157" value="" style="edgeStyle=elbowEdgeStyle;elbow=horizontal;endArrow=classic;html=1;curved=0;rounded=0;endSize=8;startSize=8;exitX=1;exitY=0.5;exitDx=0;exitDy=0;entryX=0;entryY=0.5;entryDx=0;entryDy=0;strokeWidth=3;jumpStyle=arc;strokeColor=#000000;" edge="1" parent="1" source="3OM4jTuPAk8waTPdajKI-61" target="3OM4jTuPAk8waTPdajKI-253">
          <mxGeometry width="50" height="50" relative="1" as="geometry">
            <mxPoint x="1570.0000000000005" y="1920.0000000000005" as="sourcePoint" />
            <mxPoint x="2790" y="1770.0000000000005" as="targetPoint" />
            <Array as="points">
              <mxPoint x="2160" y="1800" />
            </Array>
          </mxGeometry>
        </mxCell>
        <mxCell id="3OM4jTuPAk8waTPdajKI-158" value="" style="edgeStyle=elbowEdgeStyle;elbow=horizontal;endArrow=classic;html=1;curved=0;rounded=0;endSize=8;startSize=8;exitX=1;exitY=0.5;exitDx=0;exitDy=0;entryX=1;entryY=0.5;entryDx=0;entryDy=0;strokeWidth=3;jumpStyle=arc;strokeColor=#000000;" edge="1" parent="1" source="3OM4jTuPAk8waTPdajKI-59" target="3OM4jTuPAk8waTPdajKI-27">
          <mxGeometry width="50" height="50" relative="1" as="geometry">
            <mxPoint x="1760" y="720" as="sourcePoint" />
            <mxPoint x="1830" y="-290" as="targetPoint" />
            <Array as="points">
              <mxPoint x="1390" y="1540" />
            </Array>
          </mxGeometry>
        </mxCell>
        <mxCell id="3OM4jTuPAk8waTPdajKI-159" value="" style="edgeStyle=elbowEdgeStyle;elbow=horizontal;endArrow=classic;html=1;curved=0;rounded=0;endSize=8;startSize=8;entryX=1;entryY=0.5;entryDx=0;entryDy=0;strokeWidth=3;jumpStyle=arc;strokeColor=#000000;exitX=0;exitY=0.5;exitDx=0;exitDy=0;" edge="1" parent="1" source="3OM4jTuPAk8waTPdajKI-251" target="3OM4jTuPAk8waTPdajKI-168">
          <mxGeometry width="50" height="50" relative="1" as="geometry">
            <mxPoint x="2260" y="1560" as="sourcePoint" />
            <mxPoint x="2260" y="1150" as="targetPoint" />
            <Array as="points">
              <mxPoint x="2030" y="1690" />
            </Array>
          </mxGeometry>
        </mxCell>
        <mxCell id="3OM4jTuPAk8waTPdajKI-160" value="" style="edgeStyle=elbowEdgeStyle;elbow=horizontal;endArrow=classic;html=1;curved=0;rounded=0;endSize=8;startSize=8;exitX=1;exitY=0.5;exitDx=0;exitDy=0;entryX=1;entryY=0.25;entryDx=0;entryDy=0;strokeWidth=3;jumpStyle=arc;" edge="1" parent="1" source="3OM4jTuPAk8waTPdajKI-267" target="3OM4jTuPAk8waTPdajKI-169">
          <mxGeometry width="50" height="50" relative="1" as="geometry">
            <mxPoint x="2320" y="390" as="sourcePoint" />
            <mxPoint x="1760" y="1230" as="targetPoint" />
            <Array as="points">
              <mxPoint x="2060" y="1550" />
            </Array>
          </mxGeometry>
        </mxCell>
        <mxCell id="3OM4jTuPAk8waTPdajKI-161" value="" style="edgeStyle=elbowEdgeStyle;elbow=horizontal;endArrow=classic;html=1;curved=0;rounded=0;endSize=8;startSize=8;exitX=1;exitY=0.5;exitDx=0;exitDy=0;entryX=1;entryY=0.5;entryDx=0;entryDy=0;strokeWidth=3;jumpStyle=arc;" edge="1" parent="1" source="3OM4jTuPAk8waTPdajKI-272" target="3OM4jTuPAk8waTPdajKI-135">
          <mxGeometry width="50" height="50" relative="1" as="geometry">
            <mxPoint x="2050" y="460" as="sourcePoint" />
            <mxPoint x="2030" y="140" as="targetPoint" />
            <Array as="points">
              <mxPoint x="1430" y="1080" />
            </Array>
          </mxGeometry>
        </mxCell>
        <mxCell id="3OM4jTuPAk8waTPdajKI-162" value="" style="edgeStyle=elbowEdgeStyle;elbow=horizontal;endArrow=classic;html=1;curved=0;rounded=0;endSize=8;startSize=8;exitX=1;exitY=0.5;exitDx=0;exitDy=0;entryX=0;entryY=0.5;entryDx=0;entryDy=0;strokeWidth=3;jumpStyle=arc;strokeColor=#000000;" edge="1" parent="1" source="3OM4jTuPAk8waTPdajKI-134" target="3OM4jTuPAk8waTPdajKI-273">
          <mxGeometry width="50" height="50" relative="1" as="geometry">
            <mxPoint x="1890" y="200" as="sourcePoint" />
            <mxPoint x="1930" y="781.7543431332236" as="targetPoint" />
            <Array as="points">
              <mxPoint x="1450" y="1030" />
            </Array>
          </mxGeometry>
        </mxCell>
        <mxCell id="3OM4jTuPAk8waTPdajKI-163" value="" style="edgeStyle=elbowEdgeStyle;elbow=horizontal;endArrow=classic;html=1;curved=0;rounded=0;endSize=8;startSize=8;exitX=1;exitY=0.5;exitDx=0;exitDy=0;entryX=0;entryY=0.5;entryDx=0;entryDy=0;strokeWidth=3;jumpStyle=arc;" edge="1" parent="1" source="3OM4jTuPAk8waTPdajKI-270" target="3OM4jTuPAk8waTPdajKI-285">
          <mxGeometry width="50" height="50" relative="1" as="geometry">
            <mxPoint x="2410" y="500" as="sourcePoint" />
            <mxPoint x="2940" y="-150" as="targetPoint" />
            <Array as="points">
              <mxPoint x="2020" y="1320" />
            </Array>
          </mxGeometry>
        </mxCell>
        <mxCell id="3OM4jTuPAk8waTPdajKI-164" value="" style="edgeStyle=elbowEdgeStyle;elbow=horizontal;endArrow=classic;html=1;curved=0;rounded=0;endSize=8;startSize=8;exitX=0;exitY=0.5;exitDx=0;exitDy=0;entryX=0;entryY=0.5;entryDx=0;entryDy=0;strokeWidth=3;jumpStyle=arc;" edge="1" parent="1" source="3OM4jTuPAk8waTPdajKI-274" target="3OM4jTuPAk8waTPdajKI-238">
          <mxGeometry width="50" height="50" relative="1" as="geometry">
            <mxPoint x="2290" y="550" as="sourcePoint" />
            <mxPoint x="2860" y="-56.25" as="targetPoint" />
            <Array as="points">
              <mxPoint x="1470" y="1160" />
            </Array>
          </mxGeometry>
        </mxCell>
        <mxCell id="3OM4jTuPAk8waTPdajKI-165" value="" style="edgeStyle=elbowEdgeStyle;elbow=horizontal;endArrow=classic;html=1;curved=0;rounded=0;endSize=8;startSize=8;entryX=0;entryY=0.5;entryDx=0;entryDy=0;strokeWidth=3;jumpStyle=arc;exitX=1;exitY=0.5;exitDx=0;exitDy=0;" edge="1" parent="1" source="3OM4jTuPAk8waTPdajKI-271" target="3OM4jTuPAk8waTPdajKI-279">
          <mxGeometry width="50" height="50" relative="1" as="geometry">
            <mxPoint x="2470" y="520" as="sourcePoint" />
            <mxPoint x="2950" y="50" as="targetPoint" />
            <Array as="points">
              <mxPoint x="2110" y="1190" />
            </Array>
          </mxGeometry>
        </mxCell>
        <mxCell id="3OM4jTuPAk8waTPdajKI-166" value="" style="group" vertex="1" connectable="0" parent="1">
          <mxGeometry x="1630" y="1580" width="370" height="130" as="geometry" />
        </mxCell>
        <mxCell id="3OM4jTuPAk8waTPdajKI-167" value="&lt;font size=&quot;3&quot;&gt;&lt;b&gt;staticMemory&lt;/b&gt;&lt;br&gt;&lt;br&gt;Svc.StaticMemory&lt;br&gt;&lt;br&gt;passive&lt;br&gt;&lt;/font&gt;" style="rounded=1;whiteSpace=wrap;html=1;fontSize=8;strokeColor=#3399FF;strokeWidth=3;" vertex="1" parent="3OM4jTuPAk8waTPdajKI-166">
          <mxGeometry width="260" height="130" as="geometry" />
        </mxCell>
        <mxCell id="3OM4jTuPAk8waTPdajKI-168" value="&lt;b&gt;BufferAllocate: &lt;/b&gt;Fw.BufferGet" style="rounded=1;whiteSpace=wrap;html=1;strokeColor=#000000;fontSize=12;strokeWidth=3;" vertex="1" parent="3OM4jTuPAk8waTPdajKI-166">
          <mxGeometry x="210" y="80" width="155" height="40" as="geometry" />
        </mxCell>
        <mxCell id="3OM4jTuPAk8waTPdajKI-169" value="&lt;b&gt;bufferDeallocate: &lt;/b&gt;Fw.BufferSend" style="rounded=1;whiteSpace=wrap;html=1;strokeColor=#000000;fontSize=12;strokeWidth=3;" vertex="1" parent="3OM4jTuPAk8waTPdajKI-166">
          <mxGeometry x="210" y="20" width="155" height="40" as="geometry" />
        </mxCell>
        <mxCell id="3OM4jTuPAk8waTPdajKI-170" value="" style="group" vertex="1" connectable="0" parent="1">
          <mxGeometry x="75" y="680" width="430" height="240" as="geometry" />
        </mxCell>
        <mxCell id="3OM4jTuPAk8waTPdajKI-171" value="&lt;font size=&quot;3&quot;&gt;&lt;b&gt;rateGroup3&lt;/b&gt;&lt;br&gt;&lt;br&gt;Svc.ActiveRateGroup&lt;br&gt;&lt;br&gt;active&lt;br&gt;&lt;/font&gt;" style="rounded=1;whiteSpace=wrap;html=1;fontSize=8;strokeColor=#3399FF;strokeWidth=3;" vertex="1" parent="3OM4jTuPAk8waTPdajKI-170">
          <mxGeometry x="50" width="260" height="240" as="geometry" />
        </mxCell>
        <mxCell id="3OM4jTuPAk8waTPdajKI-172" value="Log" style="rounded=1;whiteSpace=wrap;html=1;strokeWidth=3;" vertex="1" parent="3OM4jTuPAk8waTPdajKI-170">
          <mxGeometry y="20" width="80" height="40" as="geometry" />
        </mxCell>
        <mxCell id="3OM4jTuPAk8waTPdajKI-173" value="LogText" style="rounded=1;whiteSpace=wrap;html=1;strokeWidth=3;" vertex="1" parent="3OM4jTuPAk8waTPdajKI-170">
          <mxGeometry y="70" width="80" height="40" as="geometry" />
        </mxCell>
        <mxCell id="3OM4jTuPAk8waTPdajKI-174" value="Time" style="rounded=1;whiteSpace=wrap;html=1;strokeWidth=3;" vertex="1" parent="3OM4jTuPAk8waTPdajKI-170">
          <mxGeometry y="120" width="80" height="40" as="geometry" />
        </mxCell>
        <mxCell id="3OM4jTuPAk8waTPdajKI-175" value="Tlm" style="rounded=1;whiteSpace=wrap;html=1;strokeWidth=3;" vertex="1" parent="3OM4jTuPAk8waTPdajKI-170">
          <mxGeometry y="170" width="80" height="40" as="geometry" />
        </mxCell>
        <mxCell id="3OM4jTuPAk8waTPdajKI-176" value="&lt;b&gt;Cyclein: &lt;br&gt;&lt;/b&gt;Svc.Cycle" style="rounded=1;whiteSpace=wrap;html=1;strokeWidth=3;" vertex="1" parent="3OM4jTuPAk8waTPdajKI-170">
          <mxGeometry x="275" y="30" width="155" height="40" as="geometry" />
        </mxCell>
        <mxCell id="3OM4jTuPAk8waTPdajKI-177" value="&lt;b&gt;RateGroupMemberOut: &lt;/b&gt;Sched" style="rounded=1;whiteSpace=wrap;html=1;strokeWidth=3;" vertex="1" parent="3OM4jTuPAk8waTPdajKI-170">
          <mxGeometry x="275" y="80" width="155" height="40" as="geometry" />
        </mxCell>
        <mxCell id="3OM4jTuPAk8waTPdajKI-178" value="&lt;b&gt;PingIn: &lt;br&gt;&lt;/b&gt;Svc.Ping" style="rounded=1;whiteSpace=wrap;html=1;strokeWidth=3;" vertex="1" parent="3OM4jTuPAk8waTPdajKI-170">
          <mxGeometry x="275" y="130" width="155" height="40" as="geometry" />
        </mxCell>
        <mxCell id="3OM4jTuPAk8waTPdajKI-179" value="&lt;b&gt;PingOut: &lt;br&gt;&lt;/b&gt;Svc.Ping" style="rounded=1;whiteSpace=wrap;html=1;strokeWidth=3;" vertex="1" parent="3OM4jTuPAk8waTPdajKI-170">
          <mxGeometry x="275" y="180" width="155" height="40" as="geometry" />
        </mxCell>
        <mxCell id="3OM4jTuPAk8waTPdajKI-180" value="" style="group" vertex="1" connectable="0" parent="1">
          <mxGeometry x="115" y="-50" width="370" height="130" as="geometry" />
        </mxCell>
        <mxCell id="3OM4jTuPAk8waTPdajKI-181" value="&lt;font size=&quot;3&quot;&gt;&lt;b&gt;rateGroupDriver&lt;/b&gt;&lt;br&gt;&lt;br&gt;Svc.RateGroupDriver&lt;br&gt;&lt;br&gt;passive&lt;br&gt;&lt;/font&gt;" style="rounded=1;whiteSpace=wrap;html=1;fontSize=8;strokeColor=#3399FF;strokeWidth=3;" vertex="1" parent="3OM4jTuPAk8waTPdajKI-180">
          <mxGeometry width="260" height="130" as="geometry" />
        </mxCell>
        <mxCell id="3OM4jTuPAk8waTPdajKI-182" value="&lt;b&gt;CycleIn: &lt;br&gt;&lt;/b&gt;Cycle" style="rounded=1;whiteSpace=wrap;html=1;strokeColor=#000000;fontSize=12;strokeWidth=3;" vertex="1" parent="3OM4jTuPAk8waTPdajKI-180">
          <mxGeometry x="215" y="30" width="155" height="40" as="geometry" />
        </mxCell>
        <mxCell id="3OM4jTuPAk8waTPdajKI-183" value="&lt;b&gt;CycleOut:&lt;br&gt;&lt;/b&gt;Cycle" style="rounded=1;whiteSpace=wrap;html=1;strokeColor=#000000;fontSize=12;strokeWidth=3;" vertex="1" parent="3OM4jTuPAk8waTPdajKI-180">
          <mxGeometry x="215" y="80" width="155" height="40" as="geometry" />
        </mxCell>
        <mxCell id="3OM4jTuPAk8waTPdajKI-184" value="" style="group" vertex="1" connectable="0" parent="1">
          <mxGeometry x="75" y="-420" width="430" height="340" as="geometry" />
        </mxCell>
        <mxCell id="3OM4jTuPAk8waTPdajKI-185" value="&lt;font size=&quot;3&quot;&gt;&lt;b&gt;blockDrv&lt;/b&gt;&lt;br&gt;&lt;br&gt;Drv.BlockDriver&lt;br&gt;&lt;br&gt;active&lt;br&gt;&lt;/font&gt;" style="rounded=1;whiteSpace=wrap;html=1;fontSize=8;strokeColor=#3399FF;strokeWidth=3;" vertex="1" parent="3OM4jTuPAk8waTPdajKI-184">
          <mxGeometry x="50" width="260" height="340" as="geometry" />
        </mxCell>
        <mxCell id="3OM4jTuPAk8waTPdajKI-186" value="Cmd" style="rounded=1;whiteSpace=wrap;html=1;strokeWidth=3;" vertex="1" parent="3OM4jTuPAk8waTPdajKI-184">
          <mxGeometry y="20" width="80" height="40" as="geometry" />
        </mxCell>
        <mxCell id="3OM4jTuPAk8waTPdajKI-187" value="Ping" style="rounded=1;whiteSpace=wrap;html=1;strokeWidth=3;" vertex="1" parent="3OM4jTuPAk8waTPdajKI-184">
          <mxGeometry y="70" width="80" height="40" as="geometry" />
        </mxCell>
        <mxCell id="3OM4jTuPAk8waTPdajKI-188" value="&lt;b&gt;Sched&lt;/b&gt;: &lt;br&gt;Svc.Sched" style="rounded=1;whiteSpace=wrap;html=1;strokeWidth=3;" vertex="1" parent="3OM4jTuPAk8waTPdajKI-184">
          <mxGeometry x="275" y="20" width="155" height="40" as="geometry" />
        </mxCell>
        <mxCell id="3OM4jTuPAk8waTPdajKI-189" value="&lt;b&gt;BufferIn: &lt;br&gt;&lt;/b&gt;Drv.DataBuffer" style="rounded=1;whiteSpace=wrap;html=1;strokeWidth=3;" vertex="1" parent="3OM4jTuPAk8waTPdajKI-184">
          <mxGeometry x="275" y="70" width="155" height="40" as="geometry" />
        </mxCell>
        <mxCell id="3OM4jTuPAk8waTPdajKI-190" value="Time" style="rounded=1;whiteSpace=wrap;html=1;strokeWidth=3;" vertex="1" parent="3OM4jTuPAk8waTPdajKI-184">
          <mxGeometry y="120" width="80" height="40" as="geometry" />
        </mxCell>
        <mxCell id="3OM4jTuPAk8waTPdajKI-191" value="Tlm" style="rounded=1;whiteSpace=wrap;html=1;strokeWidth=3;" vertex="1" parent="3OM4jTuPAk8waTPdajKI-184">
          <mxGeometry y="170" width="80" height="40" as="geometry" />
        </mxCell>
        <mxCell id="3OM4jTuPAk8waTPdajKI-192" value="&lt;b&gt;CycleOut: &lt;br&gt;&lt;/b&gt;Svc.Cycle" style="rounded=1;whiteSpace=wrap;html=1;strokeWidth=3;" vertex="1" parent="3OM4jTuPAk8waTPdajKI-184">
          <mxGeometry x="275" y="120" width="155" height="40" as="geometry" />
        </mxCell>
        <mxCell id="3OM4jTuPAk8waTPdajKI-193" value="&lt;b&gt;BufferOut: &lt;br&gt;&lt;/b&gt;Drv.DataBuffer" style="rounded=1;whiteSpace=wrap;html=1;strokeWidth=3;" vertex="1" parent="3OM4jTuPAk8waTPdajKI-184">
          <mxGeometry x="275" y="170" width="155" height="40" as="geometry" />
        </mxCell>
        <mxCell id="3OM4jTuPAk8waTPdajKI-194" value="&lt;b&gt;PingIn: &lt;br&gt;&lt;/b&gt;Svc.Ping" style="rounded=1;whiteSpace=wrap;html=1;strokeWidth=3;" vertex="1" parent="3OM4jTuPAk8waTPdajKI-184">
          <mxGeometry x="275" y="220" width="155" height="40" as="geometry" />
        </mxCell>
        <mxCell id="3OM4jTuPAk8waTPdajKI-195" value="&lt;b&gt;PingOut: &lt;br&gt;&lt;/b&gt;Svc.Ping" style="rounded=1;whiteSpace=wrap;html=1;strokeWidth=3;" vertex="1" parent="3OM4jTuPAk8waTPdajKI-184">
          <mxGeometry x="275" y="270" width="155" height="40" as="geometry" />
        </mxCell>
        <mxCell id="3OM4jTuPAk8waTPdajKI-196" value="" style="group" vertex="1" connectable="0" parent="1">
          <mxGeometry x="75" y="150" width="430" height="240" as="geometry" />
        </mxCell>
        <mxCell id="3OM4jTuPAk8waTPdajKI-197" value="&lt;font size=&quot;3&quot;&gt;&lt;b&gt;rateGroup1&lt;/b&gt;&lt;br&gt;&lt;br&gt;Svc.ActiveRateGroup&lt;br&gt;&lt;br&gt;active&lt;br&gt;&lt;/font&gt;" style="rounded=1;whiteSpace=wrap;html=1;fontSize=8;strokeColor=#3399FF;strokeWidth=3;" vertex="1" parent="3OM4jTuPAk8waTPdajKI-196">
          <mxGeometry x="50" width="260" height="240" as="geometry" />
        </mxCell>
        <mxCell id="3OM4jTuPAk8waTPdajKI-198" value="Log" style="rounded=1;whiteSpace=wrap;html=1;strokeWidth=3;" vertex="1" parent="3OM4jTuPAk8waTPdajKI-196">
          <mxGeometry y="20" width="80" height="40" as="geometry" />
        </mxCell>
        <mxCell id="3OM4jTuPAk8waTPdajKI-199" value="LogText" style="rounded=1;whiteSpace=wrap;html=1;strokeWidth=3;" vertex="1" parent="3OM4jTuPAk8waTPdajKI-196">
          <mxGeometry y="70" width="80" height="40" as="geometry" />
        </mxCell>
        <mxCell id="3OM4jTuPAk8waTPdajKI-200" value="Time" style="rounded=1;whiteSpace=wrap;html=1;strokeWidth=3;" vertex="1" parent="3OM4jTuPAk8waTPdajKI-196">
          <mxGeometry y="120" width="80" height="40" as="geometry" />
        </mxCell>
        <mxCell id="3OM4jTuPAk8waTPdajKI-201" value="Tlm" style="rounded=1;whiteSpace=wrap;html=1;strokeWidth=3;" vertex="1" parent="3OM4jTuPAk8waTPdajKI-196">
          <mxGeometry y="170" width="80" height="40" as="geometry" />
        </mxCell>
        <mxCell id="3OM4jTuPAk8waTPdajKI-202" value="&lt;b&gt;Cyclein: &lt;br&gt;&lt;/b&gt;Svc.Cycle" style="rounded=1;whiteSpace=wrap;html=1;strokeWidth=3;" vertex="1" parent="3OM4jTuPAk8waTPdajKI-196">
          <mxGeometry x="275" y="30" width="155" height="40" as="geometry" />
        </mxCell>
        <mxCell id="3OM4jTuPAk8waTPdajKI-203" value="&lt;b&gt;RateGroupMemberOut: &lt;/b&gt;Sched" style="rounded=1;whiteSpace=wrap;html=1;strokeWidth=3;" vertex="1" parent="3OM4jTuPAk8waTPdajKI-196">
          <mxGeometry x="275" y="80" width="155" height="40" as="geometry" />
        </mxCell>
        <mxCell id="3OM4jTuPAk8waTPdajKI-204" value="&lt;b&gt;PingIn: &lt;br&gt;&lt;/b&gt;Svc.Ping" style="rounded=1;whiteSpace=wrap;html=1;strokeWidth=3;" vertex="1" parent="3OM4jTuPAk8waTPdajKI-196">
          <mxGeometry x="275" y="130" width="155" height="40" as="geometry" />
        </mxCell>
        <mxCell id="3OM4jTuPAk8waTPdajKI-205" value="&lt;b&gt;PingOut: &lt;br&gt;&lt;/b&gt;Svc.Ping" style="rounded=1;whiteSpace=wrap;html=1;strokeWidth=3;" vertex="1" parent="3OM4jTuPAk8waTPdajKI-196">
          <mxGeometry x="275" y="180" width="155" height="40" as="geometry" />
        </mxCell>
        <mxCell id="3OM4jTuPAk8waTPdajKI-206" value="" style="group" vertex="1" connectable="0" parent="1">
          <mxGeometry x="75" y="410" width="430" height="240" as="geometry" />
        </mxCell>
        <mxCell id="3OM4jTuPAk8waTPdajKI-207" value="&lt;font size=&quot;3&quot;&gt;&lt;b&gt;rateGroup2&lt;/b&gt;&lt;br&gt;&lt;br&gt;Svc.ActiveRateGroup&lt;br&gt;&lt;br&gt;active&lt;br&gt;&lt;/font&gt;" style="rounded=1;whiteSpace=wrap;html=1;fontSize=8;strokeColor=#3399FF;strokeWidth=3;" vertex="1" parent="3OM4jTuPAk8waTPdajKI-206">
          <mxGeometry x="50" width="260" height="240" as="geometry" />
        </mxCell>
        <mxCell id="3OM4jTuPAk8waTPdajKI-208" value="Log" style="rounded=1;whiteSpace=wrap;html=1;strokeWidth=3;" vertex="1" parent="3OM4jTuPAk8waTPdajKI-206">
          <mxGeometry y="20" width="80" height="40" as="geometry" />
        </mxCell>
        <mxCell id="3OM4jTuPAk8waTPdajKI-209" value="LogText" style="rounded=1;whiteSpace=wrap;html=1;strokeWidth=3;" vertex="1" parent="3OM4jTuPAk8waTPdajKI-206">
          <mxGeometry y="70" width="80" height="40" as="geometry" />
        </mxCell>
        <mxCell id="3OM4jTuPAk8waTPdajKI-210" value="Time" style="rounded=1;whiteSpace=wrap;html=1;strokeWidth=3;" vertex="1" parent="3OM4jTuPAk8waTPdajKI-206">
          <mxGeometry y="120" width="80" height="40" as="geometry" />
        </mxCell>
        <mxCell id="3OM4jTuPAk8waTPdajKI-211" value="Tlm" style="rounded=1;whiteSpace=wrap;html=1;strokeWidth=3;" vertex="1" parent="3OM4jTuPAk8waTPdajKI-206">
          <mxGeometry y="170" width="80" height="40" as="geometry" />
        </mxCell>
        <mxCell id="3OM4jTuPAk8waTPdajKI-212" value="&lt;b&gt;CycleIn: &lt;br&gt;&lt;/b&gt;Svc.Cycle" style="rounded=1;whiteSpace=wrap;html=1;strokeWidth=3;" vertex="1" parent="3OM4jTuPAk8waTPdajKI-206">
          <mxGeometry x="275" y="30" width="155" height="40" as="geometry" />
        </mxCell>
        <mxCell id="3OM4jTuPAk8waTPdajKI-213" value="&lt;b&gt;RateGroupMemberOut: &lt;/b&gt;Sched" style="rounded=1;whiteSpace=wrap;html=1;strokeWidth=3;" vertex="1" parent="3OM4jTuPAk8waTPdajKI-206">
          <mxGeometry x="275" y="80" width="155" height="40" as="geometry" />
        </mxCell>
        <mxCell id="3OM4jTuPAk8waTPdajKI-214" value="&lt;b&gt;PingIn: &lt;br&gt;&lt;/b&gt;Svc.Ping" style="rounded=1;whiteSpace=wrap;html=1;strokeWidth=3;" vertex="1" parent="3OM4jTuPAk8waTPdajKI-206">
          <mxGeometry x="275" y="130" width="155" height="40" as="geometry" />
        </mxCell>
        <mxCell id="3OM4jTuPAk8waTPdajKI-215" value="&lt;b&gt;PingOut: &lt;br&gt;&lt;/b&gt;Svc.Ping" style="rounded=1;whiteSpace=wrap;html=1;strokeWidth=3;" vertex="1" parent="3OM4jTuPAk8waTPdajKI-206">
          <mxGeometry x="275" y="180" width="155" height="40" as="geometry" />
        </mxCell>
        <mxCell id="3OM4jTuPAk8waTPdajKI-216" value="" style="group" vertex="1" connectable="0" parent="1">
          <mxGeometry x="130" y="1320" width="370" height="140" as="geometry" />
        </mxCell>
        <mxCell id="3OM4jTuPAk8waTPdajKI-217" value="&lt;font size=&quot;3&quot;&gt;&lt;b&gt;fatalHandler&lt;/b&gt;&lt;br&gt;&lt;br&gt;Svc.FatalHandler&lt;br&gt;&lt;br&gt;passive&lt;br&gt;&lt;/font&gt;" style="rounded=1;whiteSpace=wrap;html=1;fontSize=8;strokeColor=#3399FF;strokeWidth=3;" vertex="1" parent="3OM4jTuPAk8waTPdajKI-216">
          <mxGeometry width="260" height="140" as="geometry" />
        </mxCell>
        <mxCell id="3OM4jTuPAk8waTPdajKI-218" value="&lt;b&gt;FatalReceive: &lt;/b&gt;Svc.FatalEvent" style="rounded=1;whiteSpace=wrap;html=1;strokeColor=#000000;fontSize=12;strokeWidth=3;" vertex="1" parent="3OM4jTuPAk8waTPdajKI-216">
          <mxGeometry x="215" y="20" width="155" height="40" as="geometry" />
        </mxCell>
        <mxCell id="3OM4jTuPAk8waTPdajKI-219" value="" style="edgeStyle=orthogonalEdgeStyle;rounded=0;orthogonalLoop=1;jettySize=auto;html=1;" edge="1" parent="1" source="3OM4jTuPAk8waTPdajKI-220" target="3OM4jTuPAk8waTPdajKI-92">
          <mxGeometry relative="1" as="geometry" />
        </mxCell>
        <mxCell id="3OM4jTuPAk8waTPdajKI-220" value="&lt;b&gt;rate&lt;br&gt;Group1&lt;/b&gt;" style="shape=process;whiteSpace=wrap;html=1;backgroundOutline=1;" vertex="1" parent="1">
          <mxGeometry x="1840" y="310" width="60" height="40" as="geometry" />
        </mxCell>
        <mxCell id="3OM4jTuPAk8waTPdajKI-221" style="edgeStyle=orthogonalEdgeStyle;rounded=0;orthogonalLoop=1;jettySize=auto;html=1;entryX=1;entryY=0.5;entryDx=0;entryDy=0;" edge="1" parent="1" source="3OM4jTuPAk8waTPdajKI-222" target="3OM4jTuPAk8waTPdajKI-188">
          <mxGeometry relative="1" as="geometry" />
        </mxCell>
        <mxCell id="3OM4jTuPAk8waTPdajKI-222" value="&lt;b&gt;rate&lt;br&gt;Group3&lt;br&gt;&lt;/b&gt;" style="shape=process;whiteSpace=wrap;html=1;backgroundOutline=1;" vertex="1" parent="1">
          <mxGeometry x="550" y="-400" width="60" height="40" as="geometry" />
        </mxCell>
        <mxCell id="3OM4jTuPAk8waTPdajKI-223" style="edgeStyle=orthogonalEdgeStyle;rounded=0;orthogonalLoop=1;jettySize=auto;html=1;entryX=1;entryY=0.5;entryDx=0;entryDy=0;" edge="1" parent="1" source="3OM4jTuPAk8waTPdajKI-224" target="3OM4jTuPAk8waTPdajKI-22">
          <mxGeometry relative="1" as="geometry" />
        </mxCell>
        <mxCell id="3OM4jTuPAk8waTPdajKI-224" value="&lt;b&gt;rate&lt;br&gt;Group1&lt;br&gt;&lt;/b&gt;" style="shape=process;whiteSpace=wrap;html=1;backgroundOutline=1;" vertex="1" parent="1">
          <mxGeometry x="1330" y="1120" width="60" height="40" as="geometry" />
        </mxCell>
        <mxCell id="3OM4jTuPAk8waTPdajKI-225" value="" style="edgeStyle=orthogonalEdgeStyle;rounded=0;orthogonalLoop=1;jettySize=auto;html=1;" edge="1" parent="1" source="3OM4jTuPAk8waTPdajKI-226" target="3OM4jTuPAk8waTPdajKI-17">
          <mxGeometry relative="1" as="geometry" />
        </mxCell>
        <mxCell id="3OM4jTuPAk8waTPdajKI-226" value="&lt;b&gt;rate&lt;br&gt;Group2&lt;br&gt;&lt;/b&gt;" style="shape=process;whiteSpace=wrap;html=1;backgroundOutline=1;" vertex="1" parent="1">
          <mxGeometry x="1195" y="360" width="60" height="40" as="geometry" />
        </mxCell>
        <mxCell id="3OM4jTuPAk8waTPdajKI-227" style="edgeStyle=orthogonalEdgeStyle;rounded=0;orthogonalLoop=1;jettySize=auto;html=1;entryX=1;entryY=0.5;entryDx=0;entryDy=0;" edge="1" parent="1" source="3OM4jTuPAk8waTPdajKI-228" target="3OM4jTuPAk8waTPdajKI-79">
          <mxGeometry relative="1" as="geometry" />
        </mxCell>
        <mxCell id="3OM4jTuPAk8waTPdajKI-228" value="&lt;b&gt;rate&lt;br&gt;Group3&lt;br&gt;&lt;/b&gt;" style="shape=process;whiteSpace=wrap;html=1;backgroundOutline=1;" vertex="1" parent="1">
          <mxGeometry x="1860" y="-20" width="60" height="40" as="geometry" />
        </mxCell>
        <mxCell id="3OM4jTuPAk8waTPdajKI-229" value="&lt;b&gt;rate&lt;br&gt;Group3&lt;br&gt;&lt;/b&gt;" style="shape=process;whiteSpace=wrap;html=1;backgroundOutline=1;" vertex="1" parent="1">
          <mxGeometry x="540" y="760" width="60" height="40" as="geometry" />
        </mxCell>
        <mxCell id="3OM4jTuPAk8waTPdajKI-230" style="edgeStyle=orthogonalEdgeStyle;rounded=0;orthogonalLoop=1;jettySize=auto;html=1;entryX=0;entryY=0.5;entryDx=0;entryDy=0;" edge="1" parent="1" source="3OM4jTuPAk8waTPdajKI-177" target="3OM4jTuPAk8waTPdajKI-229">
          <mxGeometry relative="1" as="geometry" />
        </mxCell>
        <mxCell id="3OM4jTuPAk8waTPdajKI-231" value="&lt;b&gt;rate&lt;br&gt;Group2&lt;br&gt;&lt;/b&gt;" style="shape=process;whiteSpace=wrap;html=1;backgroundOutline=1;" vertex="1" parent="1">
          <mxGeometry x="540" y="490" width="60" height="40" as="geometry" />
        </mxCell>
        <mxCell id="3OM4jTuPAk8waTPdajKI-232" style="edgeStyle=orthogonalEdgeStyle;rounded=0;orthogonalLoop=1;jettySize=auto;html=1;entryX=0;entryY=0.5;entryDx=0;entryDy=0;" edge="1" parent="1" source="3OM4jTuPAk8waTPdajKI-213" target="3OM4jTuPAk8waTPdajKI-231">
          <mxGeometry relative="1" as="geometry" />
        </mxCell>
        <mxCell id="3OM4jTuPAk8waTPdajKI-233" value="&lt;b&gt;rate&lt;br&gt;Group1&lt;br&gt;&lt;/b&gt;" style="shape=process;whiteSpace=wrap;html=1;backgroundOutline=1;" vertex="1" parent="1">
          <mxGeometry x="550" y="230" width="60" height="40" as="geometry" />
        </mxCell>
        <mxCell id="3OM4jTuPAk8waTPdajKI-234" style="edgeStyle=orthogonalEdgeStyle;rounded=0;orthogonalLoop=1;jettySize=auto;html=1;entryX=0;entryY=0.5;entryDx=0;entryDy=0;" edge="1" parent="1" source="3OM4jTuPAk8waTPdajKI-203" target="3OM4jTuPAk8waTPdajKI-233">
          <mxGeometry relative="1" as="geometry" />
        </mxCell>
        <mxCell id="3OM4jTuPAk8waTPdajKI-235" value="" style="group;strokeWidth=3;" vertex="1" connectable="0" parent="1">
          <mxGeometry x="1577.5" y="700" width="420" height="320" as="geometry" />
        </mxCell>
        <mxCell id="3OM4jTuPAk8waTPdajKI-236" value="&lt;font size=&quot;3&quot;&gt;&lt;b&gt;fileUplink&lt;/b&gt;&lt;br&gt;&lt;br&gt;Svc.FileUplink&lt;br&gt;&lt;br&gt;active&lt;br&gt;&lt;/font&gt;" style="rounded=1;whiteSpace=wrap;html=1;fontSize=8;strokeColor=#3399FF;strokeWidth=3;" vertex="1" parent="3OM4jTuPAk8waTPdajKI-235">
          <mxGeometry x="50" width="260" height="320" as="geometry" />
        </mxCell>
        <mxCell id="3OM4jTuPAk8waTPdajKI-237" value="timeCaller" style="rounded=1;whiteSpace=wrap;html=1;strokeColor=#000000;fontSize=12;strokeWidth=3;" vertex="1" parent="3OM4jTuPAk8waTPdajKI-235">
          <mxGeometry y="20" width="80" height="40" as="geometry" />
        </mxCell>
        <mxCell id="3OM4jTuPAk8waTPdajKI-238" value="&lt;b&gt;bufferSendIn: &lt;/b&gt;Fw.BufferSend" style="rounded=1;whiteSpace=wrap;html=1;strokeColor=#000000;fontSize=12;strokeWidth=3;" vertex="1" parent="3OM4jTuPAk8waTPdajKI-235">
          <mxGeometry x="-37.5" y="230" width="155" height="40" as="geometry" />
        </mxCell>
        <mxCell id="3OM4jTuPAk8waTPdajKI-239" value="&lt;b&gt;bufferSendOut: &lt;/b&gt;Fw.BufferSend" style="rounded=1;whiteSpace=wrap;html=1;strokeColor=#000000;fontSize=12;strokeWidth=3;" vertex="1" parent="3OM4jTuPAk8waTPdajKI-235">
          <mxGeometry x="265" y="80" width="155" height="40" as="geometry" />
        </mxCell>
        <mxCell id="3OM4jTuPAk8waTPdajKI-240" value="eventOut" style="rounded=1;whiteSpace=wrap;html=1;strokeColor=#000000;fontSize=12;strokeWidth=3;" vertex="1" parent="3OM4jTuPAk8waTPdajKI-235">
          <mxGeometry y="120" width="80" height="40" as="geometry" />
        </mxCell>
        <mxCell id="3OM4jTuPAk8waTPdajKI-241" value="tlmOut" style="rounded=1;whiteSpace=wrap;html=1;strokeColor=#000000;fontSize=12;strokeWidth=3;" vertex="1" parent="3OM4jTuPAk8waTPdajKI-235">
          <mxGeometry y="70" width="80" height="40" as="geometry" />
        </mxCell>
        <mxCell id="3OM4jTuPAk8waTPdajKI-242" value="&lt;b&gt;PingIn: &lt;br&gt;&lt;/b&gt;Svc.Ping" style="rounded=1;whiteSpace=wrap;html=1;strokeColor=#000000;fontSize=12;strokeWidth=3;" vertex="1" parent="3OM4jTuPAk8waTPdajKI-235">
          <mxGeometry x="265" y="130" width="155" height="40" as="geometry" />
        </mxCell>
        <mxCell id="3OM4jTuPAk8waTPdajKI-243" value="&lt;b&gt;PingOut: &lt;br&gt;&lt;/b&gt;Svc.Ping" style="rounded=1;whiteSpace=wrap;html=1;strokeColor=#000000;fontSize=12;strokeWidth=3;" vertex="1" parent="3OM4jTuPAk8waTPdajKI-235">
          <mxGeometry x="265" y="180" width="155" height="40" as="geometry" />
        </mxCell>
        <mxCell id="3OM4jTuPAk8waTPdajKI-244" value="LogText" style="rounded=1;whiteSpace=wrap;html=1;strokeColor=#000000;fontSize=12;strokeWidth=3;" vertex="1" parent="3OM4jTuPAk8waTPdajKI-235">
          <mxGeometry y="170" width="80" height="40" as="geometry" />
        </mxCell>
        <mxCell id="3OM4jTuPAk8waTPdajKI-245" value="" style="edgeStyle=elbowEdgeStyle;elbow=horizontal;endArrow=classic;html=1;curved=0;rounded=0;endSize=8;startSize=8;entryX=0;entryY=0.5;entryDx=0;entryDy=0;strokeWidth=3;jumpStyle=arc;strokeColor=#000000;exitX=1;exitY=0.5;exitDx=0;exitDy=0;" edge="1" parent="1" source="3OM4jTuPAk8waTPdajKI-239" target="3OM4jTuPAk8waTPdajKI-279">
          <mxGeometry width="50" height="50" relative="1" as="geometry">
            <mxPoint x="2840" y="1806.25" as="sourcePoint" />
            <mxPoint x="2880" y="2006.25" as="targetPoint" />
            <Array as="points">
              <mxPoint x="2130" y="1190" />
            </Array>
          </mxGeometry>
        </mxCell>
        <mxCell id="3OM4jTuPAk8waTPdajKI-246" value="" style="group" vertex="1" connectable="0" parent="1">
          <mxGeometry x="2200" y="1460" width="390" height="380" as="geometry" />
        </mxCell>
        <mxCell id="3OM4jTuPAk8waTPdajKI-247" value="&lt;font size=&quot;3&quot;&gt;&lt;b&gt;comm&lt;/b&gt;&lt;br&gt;&lt;br&gt;Drv.ByteStreamDriveModel&lt;br&gt;&lt;br&gt;passive&lt;br&gt;&lt;/font&gt;" style="rounded=1;whiteSpace=wrap;html=1;fontSize=8;strokeColor=#b85450;strokeWidth=5;fillColor=#f8cecc;" vertex="1" parent="3OM4jTuPAk8waTPdajKI-246">
          <mxGeometry x="130" width="260" height="380" as="geometry" />
        </mxCell>
        <mxCell id="3OM4jTuPAk8waTPdajKI-248" value="&lt;b&gt;read: &lt;br&gt;&lt;/b&gt;Drv.ByteStreamReady" style="rounded=1;whiteSpace=wrap;html=1;strokeColor=#000000;fontSize=12;strokeWidth=3;" vertex="1" parent="3OM4jTuPAk8waTPdajKI-246">
          <mxGeometry y="45" width="155" height="40" as="geometry" />
        </mxCell>
        <mxCell id="3OM4jTuPAk8waTPdajKI-249" value="&lt;b&gt;recv: &lt;br&gt;&lt;/b&gt;Drv.ByteStreamRecv" style="rounded=1;whiteSpace=wrap;html=1;strokeColor=#000000;fontSize=12;strokeWidth=3;" vertex="1" parent="3OM4jTuPAk8waTPdajKI-246">
          <mxGeometry y="95" width="155" height="40" as="geometry" />
        </mxCell>
        <mxCell id="3OM4jTuPAk8waTPdajKI-250" value="&lt;b&gt;poll: &lt;br&gt;&lt;/b&gt;Drv.ByteStreamPoll" style="rounded=1;whiteSpace=wrap;html=1;strokeColor=#000000;fontSize=12;strokeWidth=3;" vertex="1" parent="3OM4jTuPAk8waTPdajKI-246">
          <mxGeometry y="150" width="155" height="40" as="geometry" />
        </mxCell>
        <mxCell id="3OM4jTuPAk8waTPdajKI-251" value="&lt;b&gt;allocate: &lt;br&gt;&lt;/b&gt;Fw.BufferGet" style="rounded=1;whiteSpace=wrap;html=1;strokeColor=#000000;fontSize=12;strokeWidth=3;" vertex="1" parent="3OM4jTuPAk8waTPdajKI-246">
          <mxGeometry y="255" width="155" height="40" as="geometry" />
        </mxCell>
        <mxCell id="3OM4jTuPAk8waTPdajKI-252" value="&lt;b&gt;deallocate: &lt;br&gt;&lt;/b&gt;Fw.BufferSend" style="rounded=1;whiteSpace=wrap;html=1;strokeColor=#000000;fontSize=12;strokeWidth=3;" vertex="1" parent="3OM4jTuPAk8waTPdajKI-246">
          <mxGeometry y="205" width="155" height="40" as="geometry" />
        </mxCell>
        <mxCell id="3OM4jTuPAk8waTPdajKI-253" value="&lt;b&gt;send: &lt;br&gt;&lt;/b&gt;Drv.ByteStreamSend" style="rounded=1;whiteSpace=wrap;html=1;strokeColor=#000000;fontSize=12;strokeWidth=3;" vertex="1" parent="3OM4jTuPAk8waTPdajKI-246">
          <mxGeometry y="310" width="155" height="40" as="geometry" />
        </mxCell>
        <mxCell id="3OM4jTuPAk8waTPdajKI-254" style="edgeStyle=orthogonalEdgeStyle;rounded=0;orthogonalLoop=1;jettySize=auto;html=1;entryX=1;entryY=0.5;entryDx=0;entryDy=0;exitX=0;exitY=0.5;exitDx=0;exitDy=0;strokeWidth=3;" edge="1" parent="1" source="3OM4jTuPAk8waTPdajKI-249" target="3OM4jTuPAk8waTPdajKI-266">
          <mxGeometry relative="1" as="geometry">
            <Array as="points">
              <mxPoint x="2130" y="1575" />
              <mxPoint x="2130" y="1425" />
            </Array>
          </mxGeometry>
        </mxCell>
        <mxCell id="3OM4jTuPAk8waTPdajKI-255" style="edgeStyle=orthogonalEdgeStyle;rounded=0;orthogonalLoop=1;jettySize=auto;html=1;strokeWidth=3;jumpStyle=arc;exitX=0;exitY=0.5;exitDx=0;exitDy=0;entryX=1;entryY=0.75;entryDx=0;entryDy=0;" edge="1" parent="1" source="3OM4jTuPAk8waTPdajKI-252" target="3OM4jTuPAk8waTPdajKI-169">
          <mxGeometry relative="1" as="geometry">
            <mxPoint x="2210" y="1750" as="targetPoint" />
            <Array as="points">
              <mxPoint x="2060" y="1685" />
              <mxPoint x="2060" y="1630" />
            </Array>
          </mxGeometry>
        </mxCell>
        <mxCell id="3OM4jTuPAk8waTPdajKI-256" value="" style="shape=flexArrow;endArrow=classic;startArrow=classic;html=1;rounded=0;exitX=1;exitY=0.5;exitDx=0;exitDy=0;entryX=0;entryY=0.5;entryDx=0;entryDy=0;" edge="1" parent="1" source="3OM4jTuPAk8waTPdajKI-247" target="3OM4jTuPAk8waTPdajKI-257">
          <mxGeometry width="100" height="100" relative="1" as="geometry">
            <mxPoint x="2710" y="1630" as="sourcePoint" />
            <mxPoint x="2860" y="1650" as="targetPoint" />
          </mxGeometry>
        </mxCell>
        <mxCell id="3OM4jTuPAk8waTPdajKI-257" value="&lt;font style=&quot;font-size: 22px;&quot;&gt;Fprime Ground Data Segment&lt;br&gt;&lt;/font&gt;" style="shape=process;whiteSpace=wrap;html=1;backgroundOutline=1;fontStyle=1" vertex="1" parent="1">
          <mxGeometry x="2700" y="1520" width="290" height="260" as="geometry" />
        </mxCell>
        <mxCell id="3OM4jTuPAk8waTPdajKI-258" value="TCP Server" style="text;html=1;strokeColor=none;fillColor=none;align=center;verticalAlign=middle;whiteSpace=wrap;rounded=0;strokeWidth=2;fontSize=22;" vertex="1" parent="1">
          <mxGeometry x="2775" y="1465" width="140" height="30" as="geometry" />
        </mxCell>
        <mxCell id="3OM4jTuPAk8waTPdajKI-259" value="TCP Client" style="text;html=1;strokeColor=none;fillColor=none;align=center;verticalAlign=middle;whiteSpace=wrap;rounded=0;strokeWidth=2;fontSize=22;" vertex="1" parent="1">
          <mxGeometry x="2380" y="1420" width="140" height="30" as="geometry" />
        </mxCell>
        <mxCell id="3OM4jTuPAk8waTPdajKI-260" style="edgeStyle=orthogonalEdgeStyle;rounded=0;orthogonalLoop=1;jettySize=auto;html=1;entryX=0;entryY=0.5;entryDx=0;entryDy=0;fontSize=14;strokeWidth=3;jumpStyle=arc;" edge="1" parent="1" source="3OM4jTuPAk8waTPdajKI-145" target="3OM4jTuPAk8waTPdajKI-57">
          <mxGeometry relative="1" as="geometry">
            <mxPoint x="1250" y="1640" as="targetPoint" />
            <Array as="points">
              <mxPoint x="700" y="1040" />
              <mxPoint x="700" y="1590" />
            </Array>
          </mxGeometry>
        </mxCell>
        <mxCell id="3OM4jTuPAk8waTPdajKI-261" style="edgeStyle=orthogonalEdgeStyle;rounded=0;orthogonalLoop=1;jettySize=auto;html=1;entryX=1;entryY=0.5;entryDx=0;entryDy=0;" edge="1" parent="1" source="3OM4jTuPAk8waTPdajKI-262" target="3OM4jTuPAk8waTPdajKI-280">
          <mxGeometry relative="1" as="geometry" />
        </mxCell>
        <mxCell id="3OM4jTuPAk8waTPdajKI-262" value="&lt;b&gt;rate&lt;br&gt;Group2&lt;br&gt;&lt;/b&gt;" style="shape=process;whiteSpace=wrap;html=1;backgroundOutline=1;" vertex="1" parent="1">
          <mxGeometry x="2390" y="900" width="60" height="40" as="geometry" />
        </mxCell>
        <mxCell id="3OM4jTuPAk8waTPdajKI-263" value="" style="group" vertex="1" connectable="0" parent="1">
          <mxGeometry x="1550" y="1060" width="447.5" height="490" as="geometry" />
        </mxCell>
        <mxCell id="3OM4jTuPAk8waTPdajKI-264" value="" style="group;strokeWidth=3;" vertex="1" connectable="0" parent="3OM4jTuPAk8waTPdajKI-263">
          <mxGeometry x="77.5" width="370" height="490" as="geometry" />
        </mxCell>
        <mxCell id="3OM4jTuPAk8waTPdajKI-265" value="&lt;font size=&quot;3&quot;&gt;&lt;b&gt;uplink&lt;/b&gt;&lt;br&gt;&lt;br&gt;Svc.Deframer&lt;br&gt;&lt;br&gt;passive&lt;br&gt;&lt;/font&gt;" style="rounded=1;whiteSpace=wrap;html=1;fontSize=8;strokeColor=#3399FF;strokeWidth=3;" vertex="1" parent="3OM4jTuPAk8waTPdajKI-264">
          <mxGeometry width="260" height="490" as="geometry" />
        </mxCell>
        <mxCell id="3OM4jTuPAk8waTPdajKI-266" value="&lt;b&gt;framedIn: &lt;/b&gt;Drv.ByteStreamRecv" style="rounded=1;whiteSpace=wrap;html=1;strokeColor=#000000;fontSize=12;strokeWidth=3;" vertex="1" parent="3OM4jTuPAk8waTPdajKI-264">
          <mxGeometry x="215" y="345" width="155" height="40" as="geometry" />
        </mxCell>
        <mxCell id="3OM4jTuPAk8waTPdajKI-267" value="&lt;b&gt;framedDeallocate: &lt;/b&gt;Fw.BufferSend" style="rounded=1;whiteSpace=wrap;html=1;strokeColor=#000000;fontSize=12;strokeWidth=3;" vertex="1" parent="3OM4jTuPAk8waTPdajKI-264">
          <mxGeometry x="210" y="430" width="155" height="40" as="geometry" />
        </mxCell>
        <mxCell id="3OM4jTuPAk8waTPdajKI-268" value="&lt;b&gt;schedIn: &lt;br&gt;&lt;/b&gt;Svc.Sched" style="rounded=1;whiteSpace=wrap;html=1;strokeColor=#000000;fontSize=12;strokeWidth=3;" vertex="1" parent="3OM4jTuPAk8waTPdajKI-264">
          <mxGeometry x="210" y="100" width="155" height="40" as="geometry" />
        </mxCell>
        <mxCell id="3OM4jTuPAk8waTPdajKI-269" value="&lt;b&gt;framedPoll: &lt;/b&gt;Drv.ByteStreamPoll" style="rounded=1;whiteSpace=wrap;html=1;strokeColor=#000000;fontSize=12;strokeWidth=3;" vertex="1" parent="3OM4jTuPAk8waTPdajKI-264">
          <mxGeometry x="210" y="150" width="155" height="40" as="geometry" />
        </mxCell>
        <mxCell id="3OM4jTuPAk8waTPdajKI-270" value="&lt;b&gt;bufferAllocate: &lt;/b&gt;Fw.BufferGet" style="rounded=1;whiteSpace=wrap;html=1;strokeColor=#000000;fontSize=12;strokeWidth=3;" vertex="1" parent="3OM4jTuPAk8waTPdajKI-264">
          <mxGeometry x="210" y="200" width="155" height="40" as="geometry" />
        </mxCell>
        <mxCell id="3OM4jTuPAk8waTPdajKI-271" value="&lt;b&gt;bufferDeallocate: &lt;/b&gt;Fw.BufferSend" style="rounded=1;whiteSpace=wrap;html=1;strokeColor=#000000;fontSize=12;strokeWidth=3;" vertex="1" parent="3OM4jTuPAk8waTPdajKI-264">
          <mxGeometry x="210" y="50" width="155" height="40" as="geometry" />
        </mxCell>
        <mxCell id="3OM4jTuPAk8waTPdajKI-272" value="&lt;b&gt;comOut: &lt;br&gt;&lt;/b&gt;Fw.Com" style="rounded=1;whiteSpace=wrap;html=1;strokeColor=#000000;fontSize=12;strokeWidth=3;" vertex="1" parent="3OM4jTuPAk8waTPdajKI-263">
          <mxGeometry y="170" width="155" height="40" as="geometry" />
        </mxCell>
        <mxCell id="3OM4jTuPAk8waTPdajKI-273" value="&lt;b&gt;cmdResponseIn: &lt;/b&gt;Fw.CmdResponse" style="rounded=1;whiteSpace=wrap;html=1;strokeColor=#000000;fontSize=12;strokeWidth=3;" vertex="1" parent="3OM4jTuPAk8waTPdajKI-263">
          <mxGeometry y="110" width="155" height="40" as="geometry" />
        </mxCell>
        <mxCell id="3OM4jTuPAk8waTPdajKI-274" value="&lt;b&gt;bufferOut: &lt;br&gt;&lt;/b&gt;Fw.BufferSend" style="rounded=1;whiteSpace=wrap;html=1;strokeColor=#000000;fontSize=12;strokeWidth=3;" vertex="1" parent="3OM4jTuPAk8waTPdajKI-263">
          <mxGeometry y="50" width="155" height="40" as="geometry" />
        </mxCell>
        <mxCell id="3OM4jTuPAk8waTPdajKI-275" value="" style="group" vertex="1" connectable="0" parent="1">
          <mxGeometry x="2205" y="960" width="450" height="430" as="geometry" />
        </mxCell>
        <mxCell id="3OM4jTuPAk8waTPdajKI-276" value="" style="group;strokeWidth=3;" vertex="1" connectable="0" parent="3OM4jTuPAk8waTPdajKI-275">
          <mxGeometry x="20" width="430" height="430" as="geometry" />
        </mxCell>
        <mxCell id="3OM4jTuPAk8waTPdajKI-277" value="" style="group" vertex="1" connectable="0" parent="3OM4jTuPAk8waTPdajKI-276">
          <mxGeometry x="-20" width="435" height="420" as="geometry" />
        </mxCell>
        <mxCell id="3OM4jTuPAk8waTPdajKI-278" value="&lt;font size=&quot;3&quot;&gt;&lt;b&gt;fileuplinkBufferManager&lt;/b&gt;&lt;br&gt;&lt;br&gt;Svc.BufferManager&lt;br&gt;&lt;br&gt;passive&lt;br&gt;&lt;/font&gt;" style="rounded=1;whiteSpace=wrap;html=1;fontSize=8;strokeColor=#3399FF;strokeWidth=3;" vertex="1" parent="3OM4jTuPAk8waTPdajKI-277">
          <mxGeometry x="80" width="260" height="420" as="geometry" />
        </mxCell>
        <mxCell id="3OM4jTuPAk8waTPdajKI-279" value="&lt;b&gt;bufferSendIn: &lt;/b&gt;Fw.BufferSend" style="rounded=1;whiteSpace=wrap;html=1;strokeColor=#000000;fontSize=12;strokeWidth=3;" vertex="1" parent="3OM4jTuPAk8waTPdajKI-277">
          <mxGeometry y="220" width="155" height="40" as="geometry" />
        </mxCell>
        <mxCell id="3OM4jTuPAk8waTPdajKI-280" value="&lt;b&gt;schedIn: &lt;br&gt;&lt;/b&gt;Svc.Sched" style="rounded=1;whiteSpace=wrap;html=1;strokeColor=#000000;fontSize=12;strokeWidth=3;" vertex="1" parent="3OM4jTuPAk8waTPdajKI-277">
          <mxGeometry x="280" y="20" width="155" height="40" as="geometry" />
        </mxCell>
        <mxCell id="3OM4jTuPAk8waTPdajKI-281" value="timeCaller" style="rounded=1;whiteSpace=wrap;html=1;strokeColor=#000000;fontSize=12;strokeWidth=3;" vertex="1" parent="3OM4jTuPAk8waTPdajKI-277">
          <mxGeometry x="20" y="20" width="80" height="40" as="geometry" />
        </mxCell>
        <mxCell id="3OM4jTuPAk8waTPdajKI-282" value="eventOut" style="rounded=1;whiteSpace=wrap;html=1;strokeColor=#000000;fontSize=12;strokeWidth=3;" vertex="1" parent="3OM4jTuPAk8waTPdajKI-277">
          <mxGeometry x="20" y="70" width="80" height="40" as="geometry" />
        </mxCell>
        <mxCell id="3OM4jTuPAk8waTPdajKI-283" value="textEventOut" style="rounded=1;whiteSpace=wrap;html=1;strokeColor=#000000;fontSize=12;strokeWidth=3;" vertex="1" parent="3OM4jTuPAk8waTPdajKI-277">
          <mxGeometry x="20" y="120" width="80" height="40" as="geometry" />
        </mxCell>
        <mxCell id="3OM4jTuPAk8waTPdajKI-284" value="tlmOut" style="rounded=1;whiteSpace=wrap;html=1;strokeColor=#000000;fontSize=12;strokeWidth=3;" vertex="1" parent="3OM4jTuPAk8waTPdajKI-277">
          <mxGeometry x="20" y="170" width="80" height="40" as="geometry" />
        </mxCell>
        <mxCell id="3OM4jTuPAk8waTPdajKI-285" value="&lt;b&gt;bufferGetCallee:&amp;nbsp;&lt;br&gt;&lt;/b&gt;Fw.BufferGet" style="rounded=1;whiteSpace=wrap;html=1;strokeColor=#000000;fontSize=12;strokeWidth=3;" vertex="1" parent="3OM4jTuPAk8waTPdajKI-277">
          <mxGeometry y="280" width="155" height="40" as="geometry" />
        </mxCell>
      </root>
    </mxGraphModel>
  </diagram>
</mxfile>
